<?xml version="1.0" encoding="UTF-8" standalone="no"?>
<!-- Created with Inkscape (http://www.inkscape.org/) -->

<svg
   xmlns:dc="http://purl.org/dc/elements/1.1/"
   xmlns:cc="http://creativecommons.org/ns#"
   xmlns:rdf="http://www.w3.org/1999/02/22-rdf-syntax-ns#"
   xmlns:svg="http://www.w3.org/2000/svg"
   xmlns="http://www.w3.org/2000/svg"
   xmlns:xlink="http://www.w3.org/1999/xlink"
   xmlns:sodipodi="http://sodipodi.sourceforge.net/DTD/sodipodi-0.dtd"
   xmlns:inkscape="http://www.inkscape.org/namespaces/inkscape"
   width="210mm"
   height="297mm"
   viewBox="0 0 210 297"
   version="1.1"
   id="svg3631"
   inkscape:version="0.92.4 (5da689c313, 2019-01-14)"
   sodipodi:docname="tribal butterfly.svg">
  <defs
     id="defs3625">
    <clipPath
       clipPathUnits="userSpaceOnUse"
       id="clipPath18">
      <path
         d="M 0,600.949 H 847.559 V 0 H 0 Z"
         id="path16"
         inkscape:connector-curvature="0" />
    </clipPath>
    <linearGradient
       id="a"
       x1="104.73"
       x2="494.51999"
       y1="335.72"
       y2="895.84003"
       gradientUnits="userSpaceOnUse">
      <stop
         stop-color="#e00"
         offset="0"
         id="stop2" />
      <stop
         stop-color="#9a0000"
         offset="1"
         id="stop4" />
    </linearGradient>
    <clipPath
       id="a-4">
      <use
         overflow="visible"
         xlink:href="#e"
         id="use12" />
    </clipPath>
    <clipPath
       id="clipPath2004">
      <use
         overflow="visible"
         xlink:href="#e"
         id="use2002" />
    </clipPath>
    <clipPath
       id="clipPath2008">
      <use
         overflow="visible"
         xlink:href="#e"
         id="use2006" />
    </clipPath>
    <clipPath
       id="clipPath2012">
      <use
         overflow="visible"
         xlink:href="#e"
         id="use2010" />
    </clipPath>
    <clipPath
       id="clipPath2016">
      <use
         overflow="visible"
         xlink:href="#e"
         id="use2014" />
    </clipPath>
    <clipPath
       id="clipPath2020">
      <use
         overflow="visible"
         xlink:href="#e"
         id="use2018" />
    </clipPath>
    <clipPath
       id="clipPath2024">
      <use
         overflow="visible"
         xlink:href="#e"
         id="use2022" />
    </clipPath>
    <clipPath
       id="clipPath2028">
      <use
         overflow="visible"
         xlink:href="#e"
         id="use2026" />
    </clipPath>
    <clipPath
       id="clipPath2032">
      <use
         overflow="visible"
         xlink:href="#e"
         id="use2030" />
    </clipPath>
    <clipPath
       id="clipPath2036">
      <use
         overflow="visible"
         xlink:href="#e"
         id="use2034" />
    </clipPath>
    <clipPath
       id="clipPath2040">
      <use
         overflow="visible"
         xlink:href="#e"
         id="use2038" />
    </clipPath>
    <clipPath
       id="clipPath2044">
      <use
         overflow="visible"
         xlink:href="#e"
         id="use2042" />
    </clipPath>
    <clipPath
       id="clipPath2048">
      <use
         overflow="visible"
         xlink:href="#e"
         id="use2046" />
    </clipPath>
    <clipPath
       id="clipPath2052">
      <use
         overflow="visible"
         xlink:href="#e"
         id="use2050" />
    </clipPath>
    <clipPath
       id="clipPath2056">
      <use
         overflow="visible"
         xlink:href="#e"
         id="use2054" />
    </clipPath>
    <clipPath
       id="clipPath2060">
      <use
         overflow="visible"
         xlink:href="#e"
         id="use2058" />
    </clipPath>
    <clipPath
       id="clipPath2064">
      <use
         overflow="visible"
         xlink:href="#e"
         id="use2062" />
    </clipPath>
    <clipPath
       id="clipPath2068">
      <use
         overflow="visible"
         xlink:href="#e"
         id="use2066" />
    </clipPath>
    <clipPath
       id="clipPath2072">
      <use
         overflow="visible"
         xlink:href="#e"
         id="use2070" />
    </clipPath>
    <clipPath
       id="clipPath2076">
      <use
         overflow="visible"
         xlink:href="#e"
         id="use2074" />
    </clipPath>
    <clipPath
       id="clipPath2080">
      <use
         overflow="visible"
         xlink:href="#e"
         id="use2078" />
    </clipPath>
    <clipPath
       id="clipPath2084">
      <use
         overflow="visible"
         xlink:href="#e"
         id="use2082" />
    </clipPath>
    <clipPath
       id="clipPath2088">
      <use
         overflow="visible"
         xlink:href="#e"
         id="use2086" />
    </clipPath>
    <clipPath
       id="clipPath2092">
      <use
         overflow="visible"
         xlink:href="#e"
         id="use2090" />
    </clipPath>
    <clipPath
       id="clipPath2096">
      <use
         overflow="visible"
         xlink:href="#e"
         id="use2094" />
    </clipPath>
    <clipPath
       id="clipPath2100">
      <use
         overflow="visible"
         xlink:href="#e"
         id="use2098" />
    </clipPath>
    <clipPath
       id="clipPath2104">
      <use
         overflow="visible"
         xlink:href="#e"
         id="use2102" />
    </clipPath>
    <clipPath
       id="clipPath2108">
      <use
         overflow="visible"
         xlink:href="#e"
         id="use2106" />
    </clipPath>
    <clipPath
       id="clipPath2112">
      <use
         overflow="visible"
         xlink:href="#e"
         id="use2110" />
    </clipPath>
    <clipPath
       id="clipPath2116">
      <use
         overflow="visible"
         xlink:href="#e"
         id="use2114" />
    </clipPath>
    <clipPath
       id="clipPath2120">
      <use
         overflow="visible"
         xlink:href="#e"
         id="use2118" />
    </clipPath>
    <clipPath
       id="clipPath2124">
      <use
         overflow="visible"
         xlink:href="#e"
         id="use2122" />
    </clipPath>
    <clipPath
       id="clipPath2128">
      <use
         overflow="visible"
         xlink:href="#e"
         id="use2126" />
    </clipPath>
    <clipPath
       id="clipPath2132">
      <use
         overflow="visible"
         xlink:href="#e"
         id="use2130" />
    </clipPath>
    <clipPath
       id="a-1">
      <use
         overflow="visible"
         xlink:href="#e"
         id="use12-4" />
    </clipPath>
    <clipPath
       id="clipPath2004-8">
      <use
         overflow="visible"
         xlink:href="#e"
         id="use2002-6" />
    </clipPath>
    <clipPath
       id="clipPath2008-0">
      <use
         overflow="visible"
         xlink:href="#e"
         id="use2006-5" />
    </clipPath>
    <clipPath
       id="clipPath2012-3">
      <use
         overflow="visible"
         xlink:href="#e"
         id="use2010-5" />
    </clipPath>
    <clipPath
       id="clipPath2016-3">
      <use
         overflow="visible"
         xlink:href="#e"
         id="use2014-2" />
    </clipPath>
    <clipPath
       id="clipPath2020-4">
      <use
         overflow="visible"
         xlink:href="#e"
         id="use2018-5" />
    </clipPath>
    <clipPath
       id="clipPath2024-9">
      <use
         overflow="visible"
         xlink:href="#e"
         id="use2022-9" />
    </clipPath>
    <clipPath
       id="clipPath2028-1">
      <use
         overflow="visible"
         xlink:href="#e"
         id="use2026-9" />
    </clipPath>
    <clipPath
       id="clipPath2032-1">
      <use
         overflow="visible"
         xlink:href="#e"
         id="use2030-2" />
    </clipPath>
    <clipPath
       id="clipPath2036-1">
      <use
         overflow="visible"
         xlink:href="#e"
         id="use2034-3" />
    </clipPath>
    <clipPath
       id="clipPath2040-3">
      <use
         overflow="visible"
         xlink:href="#e"
         id="use2038-6" />
    </clipPath>
    <clipPath
       id="clipPath2044-0">
      <use
         overflow="visible"
         xlink:href="#e"
         id="use2042-5" />
    </clipPath>
    <clipPath
       id="clipPath2048-1">
      <use
         overflow="visible"
         xlink:href="#e"
         id="use2046-4" />
    </clipPath>
    <clipPath
       id="clipPath2052-7">
      <use
         overflow="visible"
         xlink:href="#e"
         id="use2050-6" />
    </clipPath>
    <clipPath
       id="clipPath2056-3">
      <use
         overflow="visible"
         xlink:href="#e"
         id="use2054-3" />
    </clipPath>
    <clipPath
       id="clipPath2060-5">
      <use
         overflow="visible"
         xlink:href="#e"
         id="use2058-1" />
    </clipPath>
    <clipPath
       id="clipPath2064-9">
      <use
         overflow="visible"
         xlink:href="#e"
         id="use2062-3" />
    </clipPath>
    <clipPath
       id="clipPath2068-4">
      <use
         overflow="visible"
         xlink:href="#e"
         id="use2066-6" />
    </clipPath>
    <clipPath
       id="clipPath2072-2">
      <use
         overflow="visible"
         xlink:href="#e"
         id="use2070-9" />
    </clipPath>
    <clipPath
       id="clipPath2076-4">
      <use
         overflow="visible"
         xlink:href="#e"
         id="use2074-6" />
    </clipPath>
    <clipPath
       id="clipPath2080-7">
      <use
         overflow="visible"
         xlink:href="#e"
         id="use2078-4" />
    </clipPath>
    <clipPath
       id="clipPath2084-2">
      <use
         overflow="visible"
         xlink:href="#e"
         id="use2082-3" />
    </clipPath>
    <clipPath
       id="clipPath2088-3">
      <use
         overflow="visible"
         xlink:href="#e"
         id="use2086-4" />
    </clipPath>
    <clipPath
       id="clipPath2092-8">
      <use
         overflow="visible"
         xlink:href="#e"
         id="use2090-5" />
    </clipPath>
    <clipPath
       id="clipPath2096-6">
      <use
         overflow="visible"
         xlink:href="#e"
         id="use2094-0" />
    </clipPath>
    <clipPath
       id="clipPath2100-4">
      <use
         overflow="visible"
         xlink:href="#e"
         id="use2098-4" />
    </clipPath>
    <clipPath
       id="clipPath2104-8">
      <use
         overflow="visible"
         xlink:href="#e"
         id="use2102-9" />
    </clipPath>
    <clipPath
       id="clipPath2108-7">
      <use
         overflow="visible"
         xlink:href="#e"
         id="use2106-3" />
    </clipPath>
    <clipPath
       id="clipPath2112-1">
      <use
         overflow="visible"
         xlink:href="#e"
         id="use2110-0" />
    </clipPath>
    <clipPath
       id="clipPath2116-9">
      <use
         overflow="visible"
         xlink:href="#e"
         id="use2114-8" />
    </clipPath>
    <clipPath
       id="clipPath2120-9">
      <use
         overflow="visible"
         xlink:href="#e"
         id="use2118-3" />
    </clipPath>
    <clipPath
       id="clipPath2124-6">
      <use
         overflow="visible"
         xlink:href="#e"
         id="use2122-9" />
    </clipPath>
    <clipPath
       id="clipPath2128-5">
      <use
         overflow="visible"
         xlink:href="#e"
         id="use2126-0" />
    </clipPath>
    <clipPath
       id="clipPath2132-4">
      <use
         overflow="visible"
         xlink:href="#e"
         id="use2130-9" />
    </clipPath>
    <clipPath
       id="a-9">
      <use
         overflow="visible"
         xlink:href="#e"
         id="use12-6" />
    </clipPath>
    <clipPath
       id="clipPath2885">
      <use
         overflow="visible"
         xlink:href="#e"
         id="use2883" />
    </clipPath>
    <clipPath
       id="clipPath2889">
      <use
         overflow="visible"
         xlink:href="#e"
         id="use2887" />
    </clipPath>
    <clipPath
       id="clipPath2893">
      <use
         overflow="visible"
         xlink:href="#e"
         id="use2891" />
    </clipPath>
    <clipPath
       id="clipPath2897">
      <use
         overflow="visible"
         xlink:href="#e"
         id="use2895" />
    </clipPath>
    <clipPath
       id="clipPath2901">
      <use
         overflow="visible"
         xlink:href="#e"
         id="use2899" />
    </clipPath>
    <clipPath
       id="clipPath2905">
      <use
         overflow="visible"
         xlink:href="#e"
         id="use2903" />
    </clipPath>
    <clipPath
       id="clipPath2909">
      <use
         overflow="visible"
         xlink:href="#e"
         id="use2907" />
    </clipPath>
    <clipPath
       id="clipPath2913">
      <use
         overflow="visible"
         xlink:href="#e"
         id="use2911" />
    </clipPath>
    <clipPath
       id="clipPath2917">
      <use
         overflow="visible"
         xlink:href="#e"
         id="use2915" />
    </clipPath>
    <clipPath
       id="clipPath2921">
      <use
         overflow="visible"
         xlink:href="#e"
         id="use2919" />
    </clipPath>
    <clipPath
       id="clipPath2925">
      <use
         overflow="visible"
         xlink:href="#e"
         id="use2923" />
    </clipPath>
    <clipPath
       id="clipPath2929">
      <use
         overflow="visible"
         xlink:href="#e"
         id="use2927" />
    </clipPath>
    <clipPath
       id="clipPath2933">
      <use
         overflow="visible"
         xlink:href="#e"
         id="use2931" />
    </clipPath>
    <clipPath
       id="clipPath2937">
      <use
         overflow="visible"
         xlink:href="#e"
         id="use2935" />
    </clipPath>
    <clipPath
       id="clipPath2941">
      <use
         overflow="visible"
         xlink:href="#e"
         id="use2939" />
    </clipPath>
    <clipPath
       id="clipPath2945">
      <use
         overflow="visible"
         xlink:href="#e"
         id="use2943" />
    </clipPath>
    <clipPath
       id="clipPath2949">
      <use
         overflow="visible"
         xlink:href="#e"
         id="use2947" />
    </clipPath>
    <clipPath
       id="clipPath2953">
      <use
         overflow="visible"
         xlink:href="#e"
         id="use2951" />
    </clipPath>
    <clipPath
       id="clipPath2957">
      <use
         overflow="visible"
         xlink:href="#e"
         id="use2955" />
    </clipPath>
    <clipPath
       id="clipPath2961">
      <use
         overflow="visible"
         xlink:href="#e"
         id="use2959" />
    </clipPath>
    <clipPath
       id="clipPath2965">
      <use
         overflow="visible"
         xlink:href="#e"
         id="use2963" />
    </clipPath>
    <clipPath
       id="clipPath2969">
      <use
         overflow="visible"
         xlink:href="#e"
         id="use2967" />
    </clipPath>
    <clipPath
       id="clipPath2973">
      <use
         overflow="visible"
         xlink:href="#e"
         id="use2971" />
    </clipPath>
    <clipPath
       id="clipPath2977">
      <use
         overflow="visible"
         xlink:href="#e"
         id="use2975" />
    </clipPath>
    <clipPath
       id="clipPath2981">
      <use
         overflow="visible"
         xlink:href="#e"
         id="use2979" />
    </clipPath>
    <clipPath
       id="clipPath2985">
      <use
         overflow="visible"
         xlink:href="#e"
         id="use2983" />
    </clipPath>
    <clipPath
       id="clipPath2989">
      <use
         overflow="visible"
         xlink:href="#e"
         id="use2987" />
    </clipPath>
    <clipPath
       id="clipPath2993">
      <use
         overflow="visible"
         xlink:href="#e"
         id="use2991" />
    </clipPath>
    <clipPath
       id="clipPath2997">
      <use
         overflow="visible"
         xlink:href="#e"
         id="use2995" />
    </clipPath>
    <clipPath
       id="clipPath3001">
      <use
         overflow="visible"
         xlink:href="#e"
         id="use2999" />
    </clipPath>
    <clipPath
       id="clipPath3005">
      <use
         overflow="visible"
         xlink:href="#e"
         id="use3003" />
    </clipPath>
    <clipPath
       id="clipPath3009">
      <use
         overflow="visible"
         xlink:href="#e"
         id="use3007" />
    </clipPath>
    <clipPath
       id="clipPath3013">
      <use
         overflow="visible"
         xlink:href="#e"
         id="use3011" />
    </clipPath>
    <clipPath
       id="a-0">
      <use
         overflow="visible"
         xlink:href="#e"
         id="use12-1" />
    </clipPath>
    <clipPath
       id="clipPath3061">
      <use
         overflow="visible"
         xlink:href="#e"
         id="use3059" />
    </clipPath>
    <clipPath
       id="clipPath3065">
      <use
         overflow="visible"
         xlink:href="#e"
         id="use3063" />
    </clipPath>
    <clipPath
       id="clipPath3069">
      <use
         overflow="visible"
         xlink:href="#e"
         id="use3067" />
    </clipPath>
    <clipPath
       id="clipPath3073">
      <use
         overflow="visible"
         xlink:href="#e"
         id="use3071" />
    </clipPath>
    <clipPath
       id="clipPath3077">
      <use
         overflow="visible"
         xlink:href="#e"
         id="use3075" />
    </clipPath>
    <clipPath
       id="clipPath3081">
      <use
         overflow="visible"
         xlink:href="#e"
         id="use3079" />
    </clipPath>
    <clipPath
       id="clipPath3085">
      <use
         overflow="visible"
         xlink:href="#e"
         id="use3083" />
    </clipPath>
    <clipPath
       id="clipPath3089">
      <use
         overflow="visible"
         xlink:href="#e"
         id="use3087" />
    </clipPath>
    <clipPath
       id="clipPath3093">
      <use
         overflow="visible"
         xlink:href="#e"
         id="use3091" />
    </clipPath>
    <clipPath
       id="clipPath3097">
      <use
         overflow="visible"
         xlink:href="#e"
         id="use3095" />
    </clipPath>
    <clipPath
       id="clipPath3101">
      <use
         overflow="visible"
         xlink:href="#e"
         id="use3099" />
    </clipPath>
    <clipPath
       id="clipPath3105">
      <use
         overflow="visible"
         xlink:href="#e"
         id="use3103" />
    </clipPath>
    <clipPath
       id="clipPath3109">
      <use
         overflow="visible"
         xlink:href="#e"
         id="use3107" />
    </clipPath>
    <clipPath
       id="clipPath3113">
      <use
         overflow="visible"
         xlink:href="#e"
         id="use3111" />
    </clipPath>
    <clipPath
       id="clipPath3117">
      <use
         overflow="visible"
         xlink:href="#e"
         id="use3115" />
    </clipPath>
    <clipPath
       id="clipPath3121">
      <use
         overflow="visible"
         xlink:href="#e"
         id="use3119" />
    </clipPath>
    <clipPath
       id="clipPath3125">
      <use
         overflow="visible"
         xlink:href="#e"
         id="use3123" />
    </clipPath>
    <clipPath
       id="clipPath3129">
      <use
         overflow="visible"
         xlink:href="#e"
         id="use3127" />
    </clipPath>
    <clipPath
       id="clipPath3133">
      <use
         overflow="visible"
         xlink:href="#e"
         id="use3131" />
    </clipPath>
    <clipPath
       id="clipPath3137">
      <use
         overflow="visible"
         xlink:href="#e"
         id="use3135" />
    </clipPath>
    <clipPath
       id="clipPath3141">
      <use
         overflow="visible"
         xlink:href="#e"
         id="use3139" />
    </clipPath>
    <clipPath
       id="clipPath3145">
      <use
         overflow="visible"
         xlink:href="#e"
         id="use3143" />
    </clipPath>
    <clipPath
       id="clipPath3149">
      <use
         overflow="visible"
         xlink:href="#e"
         id="use3147" />
    </clipPath>
    <clipPath
       id="clipPath3153">
      <use
         overflow="visible"
         xlink:href="#e"
         id="use3151" />
    </clipPath>
    <clipPath
       id="clipPath3157">
      <use
         overflow="visible"
         xlink:href="#e"
         id="use3155" />
    </clipPath>
    <clipPath
       id="clipPath3161">
      <use
         overflow="visible"
         xlink:href="#e"
         id="use3159" />
    </clipPath>
    <clipPath
       id="clipPath3165">
      <use
         overflow="visible"
         xlink:href="#e"
         id="use3163" />
    </clipPath>
    <clipPath
       id="clipPath3169">
      <use
         overflow="visible"
         xlink:href="#e"
         id="use3167" />
    </clipPath>
    <clipPath
       id="clipPath3173">
      <use
         overflow="visible"
         xlink:href="#e"
         id="use3171" />
    </clipPath>
    <clipPath
       id="clipPath3177">
      <use
         overflow="visible"
         xlink:href="#e"
         id="use3175" />
    </clipPath>
    <clipPath
       id="clipPath3181">
      <use
         overflow="visible"
         xlink:href="#e"
         id="use3179" />
    </clipPath>
    <clipPath
       id="clipPath3185">
      <use
         overflow="visible"
         xlink:href="#e"
         id="use3183" />
    </clipPath>
    <clipPath
       id="clipPath3189">
      <use
         overflow="visible"
         xlink:href="#e"
         id="use3187" />
    </clipPath>
    <clipPath
       id="a-7">
      <use
         overflow="visible"
         xlink:href="#e"
         id="use12-2" />
    </clipPath>
    <clipPath
       id="clipPath4117">
      <use
         overflow="visible"
         xlink:href="#e"
         id="use4115" />
    </clipPath>
    <clipPath
       id="clipPath4121">
      <use
         overflow="visible"
         xlink:href="#e"
         id="use4119" />
    </clipPath>
    <clipPath
       id="clipPath4125">
      <use
         overflow="visible"
         xlink:href="#e"
         id="use4123" />
    </clipPath>
    <clipPath
       id="clipPath4129">
      <use
         overflow="visible"
         xlink:href="#e"
         id="use4127" />
    </clipPath>
    <clipPath
       id="clipPath4133">
      <use
         overflow="visible"
         xlink:href="#e"
         id="use4131" />
    </clipPath>
    <clipPath
       id="clipPath4137">
      <use
         overflow="visible"
         xlink:href="#e"
         id="use4135" />
    </clipPath>
    <clipPath
       id="clipPath4141">
      <use
         overflow="visible"
         xlink:href="#e"
         id="use4139" />
    </clipPath>
    <clipPath
       id="clipPath4145">
      <use
         overflow="visible"
         xlink:href="#e"
         id="use4143" />
    </clipPath>
    <clipPath
       id="clipPath4149">
      <use
         overflow="visible"
         xlink:href="#e"
         id="use4147" />
    </clipPath>
    <clipPath
       id="clipPath4153">
      <use
         overflow="visible"
         xlink:href="#e"
         id="use4151" />
    </clipPath>
    <clipPath
       id="clipPath4157">
      <use
         overflow="visible"
         xlink:href="#e"
         id="use4155" />
    </clipPath>
    <clipPath
       id="clipPath4161">
      <use
         overflow="visible"
         xlink:href="#e"
         id="use4159" />
    </clipPath>
    <clipPath
       id="clipPath4165">
      <use
         overflow="visible"
         xlink:href="#e"
         id="use4163" />
    </clipPath>
    <clipPath
       id="clipPath4169">
      <use
         overflow="visible"
         xlink:href="#e"
         id="use4167" />
    </clipPath>
    <clipPath
       id="clipPath4173">
      <use
         overflow="visible"
         xlink:href="#e"
         id="use4171" />
    </clipPath>
    <clipPath
       id="clipPath4177">
      <use
         overflow="visible"
         xlink:href="#e"
         id="use4175" />
    </clipPath>
    <clipPath
       id="clipPath4181">
      <use
         overflow="visible"
         xlink:href="#e"
         id="use4179" />
    </clipPath>
    <clipPath
       id="clipPath4185">
      <use
         overflow="visible"
         xlink:href="#e"
         id="use4183" />
    </clipPath>
    <clipPath
       id="clipPath4189">
      <use
         overflow="visible"
         xlink:href="#e"
         id="use4187" />
    </clipPath>
    <clipPath
       id="clipPath4193">
      <use
         overflow="visible"
         xlink:href="#e"
         id="use4191" />
    </clipPath>
    <clipPath
       id="clipPath4197">
      <use
         overflow="visible"
         xlink:href="#e"
         id="use4195" />
    </clipPath>
    <clipPath
       id="clipPath4201">
      <use
         overflow="visible"
         xlink:href="#e"
         id="use4199" />
    </clipPath>
    <clipPath
       id="clipPath4205">
      <use
         overflow="visible"
         xlink:href="#e"
         id="use4203" />
    </clipPath>
    <clipPath
       id="clipPath4209">
      <use
         overflow="visible"
         xlink:href="#e"
         id="use4207" />
    </clipPath>
    <clipPath
       id="clipPath4213">
      <use
         overflow="visible"
         xlink:href="#e"
         id="use4211" />
    </clipPath>
    <clipPath
       id="clipPath4217">
      <use
         overflow="visible"
         xlink:href="#e"
         id="use4215" />
    </clipPath>
    <clipPath
       id="clipPath4221">
      <use
         overflow="visible"
         xlink:href="#e"
         id="use4219" />
    </clipPath>
    <clipPath
       id="clipPath4225">
      <use
         overflow="visible"
         xlink:href="#e"
         id="use4223" />
    </clipPath>
    <clipPath
       id="clipPath4229">
      <use
         overflow="visible"
         xlink:href="#e"
         id="use4227" />
    </clipPath>
    <clipPath
       id="clipPath4233">
      <use
         overflow="visible"
         xlink:href="#e"
         id="use4231" />
    </clipPath>
    <clipPath
       id="clipPath4237">
      <use
         overflow="visible"
         xlink:href="#e"
         id="use4235" />
    </clipPath>
    <clipPath
       id="clipPath4241">
      <use
         overflow="visible"
         xlink:href="#e"
         id="use4239" />
    </clipPath>
    <clipPath
       id="clipPath4245">
      <use
         overflow="visible"
         xlink:href="#e"
         id="use4243" />
    </clipPath>
    <clipPath
       id="a-44">
      <use
         overflow="visible"
         xlink:href="#e"
         id="use12-3" />
    </clipPath>
    <clipPath
       id="clipPath4117-5">
      <use
         overflow="visible"
         xlink:href="#e"
         id="use4115-9" />
    </clipPath>
    <clipPath
       id="clipPath4121-3">
      <use
         overflow="visible"
         xlink:href="#e"
         id="use4119-4" />
    </clipPath>
    <clipPath
       id="clipPath4125-3">
      <use
         overflow="visible"
         xlink:href="#e"
         id="use4123-0" />
    </clipPath>
    <clipPath
       id="clipPath4129-4">
      <use
         overflow="visible"
         xlink:href="#e"
         id="use4127-7" />
    </clipPath>
    <clipPath
       id="clipPath4133-9">
      <use
         overflow="visible"
         xlink:href="#e"
         id="use4131-9" />
    </clipPath>
    <clipPath
       id="clipPath4137-1">
      <use
         overflow="visible"
         xlink:href="#e"
         id="use4135-1" />
    </clipPath>
    <clipPath
       id="clipPath4141-9">
      <use
         overflow="visible"
         xlink:href="#e"
         id="use4139-7" />
    </clipPath>
    <clipPath
       id="clipPath4145-5">
      <use
         overflow="visible"
         xlink:href="#e"
         id="use4143-1" />
    </clipPath>
    <clipPath
       id="clipPath4149-8">
      <use
         overflow="visible"
         xlink:href="#e"
         id="use4147-5" />
    </clipPath>
    <clipPath
       id="clipPath4153-6">
      <use
         overflow="visible"
         xlink:href="#e"
         id="use4151-7" />
    </clipPath>
    <clipPath
       id="clipPath4157-1">
      <use
         overflow="visible"
         xlink:href="#e"
         id="use4155-0" />
    </clipPath>
    <clipPath
       id="clipPath4161-6">
      <use
         overflow="visible"
         xlink:href="#e"
         id="use4159-6" />
    </clipPath>
    <clipPath
       id="clipPath4165-5">
      <use
         overflow="visible"
         xlink:href="#e"
         id="use4163-2" />
    </clipPath>
    <clipPath
       id="clipPath4169-6">
      <use
         overflow="visible"
         xlink:href="#e"
         id="use4167-0" />
    </clipPath>
    <clipPath
       id="clipPath4173-1">
      <use
         overflow="visible"
         xlink:href="#e"
         id="use4171-9" />
    </clipPath>
    <clipPath
       id="clipPath4177-5">
      <use
         overflow="visible"
         xlink:href="#e"
         id="use4175-0" />
    </clipPath>
    <clipPath
       id="clipPath4181-8">
      <use
         overflow="visible"
         xlink:href="#e"
         id="use4179-6" />
    </clipPath>
    <clipPath
       id="clipPath4185-8">
      <use
         overflow="visible"
         xlink:href="#e"
         id="use4183-4" />
    </clipPath>
    <clipPath
       id="clipPath4189-6">
      <use
         overflow="visible"
         xlink:href="#e"
         id="use4187-1" />
    </clipPath>
    <clipPath
       id="clipPath4193-9">
      <use
         overflow="visible"
         xlink:href="#e"
         id="use4191-4" />
    </clipPath>
    <clipPath
       id="clipPath4197-4">
      <use
         overflow="visible"
         xlink:href="#e"
         id="use4195-1" />
    </clipPath>
    <clipPath
       id="clipPath4201-1">
      <use
         overflow="visible"
         xlink:href="#e"
         id="use4199-6" />
    </clipPath>
    <clipPath
       id="clipPath4205-4">
      <use
         overflow="visible"
         xlink:href="#e"
         id="use4203-5" />
    </clipPath>
    <clipPath
       id="clipPath4209-3">
      <use
         overflow="visible"
         xlink:href="#e"
         id="use4207-0" />
    </clipPath>
    <clipPath
       id="clipPath4213-0">
      <use
         overflow="visible"
         xlink:href="#e"
         id="use4211-2" />
    </clipPath>
    <clipPath
       id="clipPath4217-4">
      <use
         overflow="visible"
         xlink:href="#e"
         id="use4215-2" />
    </clipPath>
    <clipPath
       id="clipPath4221-3">
      <use
         overflow="visible"
         xlink:href="#e"
         id="use4219-6" />
    </clipPath>
    <clipPath
       id="clipPath4225-9">
      <use
         overflow="visible"
         xlink:href="#e"
         id="use4223-0" />
    </clipPath>
    <clipPath
       id="clipPath4229-8">
      <use
         overflow="visible"
         xlink:href="#e"
         id="use4227-6" />
    </clipPath>
    <clipPath
       id="clipPath4233-6">
      <use
         overflow="visible"
         xlink:href="#e"
         id="use4231-2" />
    </clipPath>
    <clipPath
       id="clipPath4237-1">
      <use
         overflow="visible"
         xlink:href="#e"
         id="use4235-9" />
    </clipPath>
    <clipPath
       id="clipPath4241-7">
      <use
         overflow="visible"
         xlink:href="#e"
         id="use4239-3" />
    </clipPath>
    <clipPath
       id="clipPath4245-0">
      <use
         overflow="visible"
         xlink:href="#e"
         id="use4243-4" />
    </clipPath>
    <rect
       height="364.36"
       width="375.5"
       y="48.715"
       x="110"
       id="e" />
    <clipPath
       id="a-95">
      <use
         overflow="visible"
         xlink:href="#e"
         id="use12-8" />
    </clipPath>
    <clipPath
       id="clipPath4293">
      <use
         overflow="visible"
         xlink:href="#e"
         id="use4291" />
    </clipPath>
    <clipPath
       id="clipPath4297">
      <use
         overflow="visible"
         xlink:href="#e"
         id="use4295" />
    </clipPath>
    <clipPath
       id="clipPath4301">
      <use
         overflow="visible"
         xlink:href="#e"
         id="use4299" />
    </clipPath>
    <clipPath
       id="clipPath4305">
      <use
         overflow="visible"
         xlink:href="#e"
         id="use4303" />
    </clipPath>
    <clipPath
       id="clipPath4309">
      <use
         overflow="visible"
         xlink:href="#e"
         id="use4307" />
    </clipPath>
    <clipPath
       id="clipPath4313">
      <use
         overflow="visible"
         xlink:href="#e"
         id="use4311" />
    </clipPath>
    <clipPath
       id="clipPath4317">
      <use
         overflow="visible"
         xlink:href="#e"
         id="use4315" />
    </clipPath>
    <clipPath
       id="clipPath4321">
      <use
         overflow="visible"
         xlink:href="#e"
         id="use4319" />
    </clipPath>
    <clipPath
       id="clipPath4325">
      <use
         overflow="visible"
         xlink:href="#e"
         id="use4323" />
    </clipPath>
    <clipPath
       id="clipPath4329">
      <use
         overflow="visible"
         xlink:href="#e"
         id="use4327" />
    </clipPath>
    <clipPath
       id="clipPath4333">
      <use
         overflow="visible"
         xlink:href="#e"
         id="use4331" />
    </clipPath>
    <clipPath
       id="clipPath4337">
      <use
         overflow="visible"
         xlink:href="#e"
         id="use4335" />
    </clipPath>
    <clipPath
       id="clipPath4341">
      <use
         overflow="visible"
         xlink:href="#e"
         id="use4339" />
    </clipPath>
    <clipPath
       id="clipPath4345">
      <use
         overflow="visible"
         xlink:href="#e"
         id="use4343" />
    </clipPath>
    <clipPath
       id="clipPath4349">
      <use
         overflow="visible"
         xlink:href="#e"
         id="use4347" />
    </clipPath>
    <clipPath
       id="clipPath4353">
      <use
         overflow="visible"
         xlink:href="#e"
         id="use4351" />
    </clipPath>
    <clipPath
       id="clipPath4357">
      <use
         overflow="visible"
         xlink:href="#e"
         id="use4355" />
    </clipPath>
    <clipPath
       id="clipPath4361">
      <use
         overflow="visible"
         xlink:href="#e"
         id="use4359" />
    </clipPath>
    <clipPath
       id="clipPath4365">
      <use
         overflow="visible"
         xlink:href="#e"
         id="use4363" />
    </clipPath>
    <clipPath
       id="clipPath4369">
      <use
         overflow="visible"
         xlink:href="#e"
         id="use4367" />
    </clipPath>
    <clipPath
       id="clipPath4373">
      <use
         overflow="visible"
         xlink:href="#e"
         id="use4371" />
    </clipPath>
    <clipPath
       id="clipPath4377">
      <use
         overflow="visible"
         xlink:href="#e"
         id="use4375" />
    </clipPath>
    <clipPath
       id="clipPath4381">
      <use
         overflow="visible"
         xlink:href="#e"
         id="use4379" />
    </clipPath>
    <clipPath
       id="clipPath4385">
      <use
         overflow="visible"
         xlink:href="#e"
         id="use4383" />
    </clipPath>
    <clipPath
       id="clipPath4389">
      <use
         overflow="visible"
         xlink:href="#e"
         id="use4387" />
    </clipPath>
    <clipPath
       id="clipPath4393">
      <use
         overflow="visible"
         xlink:href="#e"
         id="use4391" />
    </clipPath>
    <clipPath
       id="clipPath4397">
      <use
         overflow="visible"
         xlink:href="#e"
         id="use4395" />
    </clipPath>
    <clipPath
       id="clipPath4401">
      <use
         overflow="visible"
         xlink:href="#e"
         id="use4399" />
    </clipPath>
    <clipPath
       id="clipPath4405">
      <use
         overflow="visible"
         xlink:href="#e"
         id="use4403" />
    </clipPath>
    <clipPath
       id="clipPath4409">
      <use
         overflow="visible"
         xlink:href="#e"
         id="use4407" />
    </clipPath>
    <clipPath
       id="clipPath4413">
      <use
         overflow="visible"
         xlink:href="#e"
         id="use4411" />
    </clipPath>
    <clipPath
       id="clipPath4417">
      <use
         overflow="visible"
         xlink:href="#e"
         id="use4415" />
    </clipPath>
    <clipPath
       id="clipPath4421">
      <use
         overflow="visible"
         xlink:href="#e"
         id="use4419" />
    </clipPath>
    <clipPath
       clipPathUnits="userSpaceOnUse"
       id="clipPath18-9">
      <path
         d="M 0,788.682 H 606.392 V 0 H 0 Z"
         id="path16-1"
         inkscape:connector-curvature="0" />
    </clipPath>
    <clipPath
       clipPathUnits="userSpaceOnUse"
       id="clipPath18-3">
      <path
         d="M 0,841.89 H 595.28 V 0 H 0 Z"
         id="path16-2"
         inkscape:connector-curvature="0" />
    </clipPath>
    <clipPath
       clipPathUnits="userSpaceOnUse"
       id="clipPath26">
      <path
         d="M 49,724.392 H 539.375 V 115.689 H 49 Z"
         id="path24"
         inkscape:connector-curvature="0" />
    </clipPath>
  </defs>
  <sodipodi:namedview
     id="base"
     pagecolor="#ffffff"
     bordercolor="#666666"
     borderopacity="1.0"
     inkscape:pageopacity="0.0"
     inkscape:pageshadow="2"
     inkscape:zoom="0.46232329"
     inkscape:cx="-7.9672001"
     inkscape:cy="677.78535"
     inkscape:document-units="mm"
     inkscape:current-layer="g11993"
     showgrid="false"
     showguides="true"
     inkscape:guide-bbox="true"
     inkscape:window-width="1920"
     inkscape:window-height="1001"
     inkscape:window-x="-9"
     inkscape:window-y="-9"
     inkscape:window-maximized="1"
     inkscape:snap-global="false">
    <sodipodi:guide
       position="72.922013,252.88982"
       orientation="0,1"
       id="guide4178"
       inkscape:locked="false" />
    <sodipodi:guide
       position="99.099147,43.94019"
       orientation="0,1"
       id="guide4180"
       inkscape:locked="false" />
  </sodipodi:namedview>
  <metadata
     id="metadata3628">
    <rdf:RDF>
      <cc:Work
         rdf:about="">
        <dc:format>image/svg+xml</dc:format>
        <dc:type
           rdf:resource="http://purl.org/dc/dcmitype/StillImage" />
        <dc:title></dc:title>
      </cc:Work>
    </rdf:RDF>
  </metadata>
  <g
     inkscape:label="Layer 1"
     inkscape:groupmode="layer"
     id="layer1">
    <g
       id="g11993"
       transform="translate(-1.9003895,-26.68405)">
      <path
         style="fill:#1a1a1a;stroke-width:0.26458332"
         d="m -318.55092,42.961462 c -2.57776,-5.392439 -9.59234,-19.380708 -9.71868,-19.380708 -0.16138,0 0.13039,0.606798 6.00254,12.48401 2.57685,5.212019 4.74461,9.476388 4.81725,9.476388 0.0726,0 -0.42287,-1.160849 -1.10111,-2.57969 z"
         id="path3707"
         inkscape:connector-curvature="0" />
      <g
         id="g1363"
         transform="matrix(0.78465629,0,0,0.78465629,22.322185,26.330199)">
        <path
           style="stroke:none;stroke-width:0.14066462"
           id="path2"
           d="m -20.756988,96.309437 0.791281,-1.1442 c 1.100331,-1.35123 2.46388,-2.48456 4.006126,-3.29761 1.658438,-0.92419 3.516896,-1.36115 5.30362,-1.95889 6.01932,-1.86592 12.351759,-2.62424 18.64369,-2.50777 6.994548,0.13398 13.958713,1.32098 20.629874,3.41365 5.952784,1.85565 11.613973,4.55824 16.971187,7.73276 5.742211,3.423773 11.18368,7.371533 16.132825,11.870123 2.601311,1.84004 5.042405,3.89416 7.443132,5.98711 2.202805,1.95608 4.392814,3.9358 6.440326,6.05463 -3.892754,-2.71258 -7.675924,-5.57862 -11.583447,-8.27235 -6.003004,-4.19926 -12.172132,-8.19034 -18.677452,-11.57093 -5.903836,-3.051583 -12.096032,-5.577353 -18.524124,-7.287833 -3.599186,-0.93106 -7.28685,-1.64789 -11.016432,-1.68052 -2.099842,-0.0327 -4.183507,0.33413 -6.2260975,0.79253 -1.7435385,0.41901 -3.5126785,0.95192 -4.9903615,2.00292 -0.852398,0.60939 -1.58557,1.56813 -1.520299,2.66335 0.0714,1.328633 0.965336,2.427443 1.880404,3.315043 1.793189,1.68305 3.975322,2.8825 6.186288,3.92426 2.479215,1.14841 5.064771,2.05399 7.692668,2.79219 9.24673,2.4764 18.7098,4.244 27.691238,7.63022 5.241725,1.99856 10.307624,4.44162 15.231164,7.12607 6.089653,3.3443 11.924705,7.16573 17.366456,11.48963 5.189821,4.17562 9.876204,8.99508 13.808905,14.37733 1.251271,1.74438 2.462898,3.52632 3.471185,5.4243 -6.384205,-7.49348 -13.854345,-14.00541 -21.819899,-19.76619 -5.5616,-3.99671 -11.428158,-7.58689 -17.606994,-10.54675 -9.717534,-4.2883 -19.864659,-7.64006 -30.275246,-9.77071 -4.478761,-0.90819 -8.984671,-1.68811 -13.433331,-2.73114 -2.114189,-0.52142 -4.2366777,-1.0777 -6.21231,-2.00954 -2.21547,-1.03273 -4.900759,-1.07691 -7.09653102,0.0332 -1.76703098,0.86109 -3.17705198,2.48216 -3.65615498,4.40153 -0.488445,1.85129 -0.116824,3.83396 0.712294,5.53094 1.290602,2.61987 3.42771698,4.81438 6.012994,6.17307 2.106731,1.1132 4.447533,1.71259 6.7971949,2.03429 4.7409601,0.62781 9.5366391,0.34079 14.2971531,0.14718 4.722673,-0.2161 9.448581,-0.46411 14.176183,-0.42844 7.766654,0.55333 15.406995,2.51776 22.565415,5.56216 5.939287,2.53056 11.660817,5.56891 17.09638,9.05064 3.248792,2.10814 6.262532,4.55838 9.154877,7.12987 2.197606,1.98844 4.37073,4.01457 6.378581,6.19839 -7.937005,-5.65135 -16.307253,-10.67673 -24.890611,-15.27759 -6.247333,-3.27706 -12.691604,-6.32625 -19.556603,-8.06318 -0.897493,-0.20336 -1.790658,-0.47726 -2.717359,-0.4751 -6.164486,-0.18931 -12.483001,0.61805 -18.116195,3.24175 -2.339394,1.11511 -4.590028,2.55672 -6.253106,4.57582 -0.90588,1.13681 -1.682771,2.55954 -1.498922,4.06169 0.14487,1.29907 1.194721,2.3159 2.361478,2.78756 1.161932,0.46149 2.455301,0.32979 3.648277,0.0688 2.26245,-0.53386 4.393236,-1.49062 6.549347,-2.3408 3.398318,-1.40721 6.887924,-2.65223 10.517491,-3.31307 4.156923,-0.79033 8.456194,-0.84938 12.627604,-0.12981 5.92606,1.12755 11.690781,3.04989 17.193438,5.50941 5.721115,2.59864 11.222506,5.75487 16.13283,9.69123 -7.759207,-3.98924 -15.961215,-7.11509 -24.391247,-9.36024 -6.924076,-1.80403 -14.148052,-2.77687 -21.295217,-2.04569 -1.814997,0.19851 -3.630838,0.45982 -5.402086,0.90919 -3.180145,1.03992 -6.334693,2.19844 -9.332396,3.69652 -2.070021,1.05687 -4.125553,2.24866 -5.738695,3.94818 -1.006174,1.06915 -1.804165,2.49258 -1.650418,4.0064 0.163213,1.68798 1.308181,3.07662 2.519725,4.1762 2.182412,1.92134 4.791178,3.27059 7.412465,4.48819 3.173251,1.58909 6.329063,3.21573 9.550422,4.70804 1.980562,0.89762 3.970964,1.81064 6.075728,2.38033 0.693112,0.15267 1.455881,0.36544 2.144575,0.0841 0.373125,-0.14388 0.450128,-0.58661 0.400754,-0.94056 -0.211026,-1.58431 -0.202769,-3.19126 -0.448581,-4.77219 -0.297578,-2.11447 -1.089544,-4.20644 -2.541953,-5.80101 -1.319912,-1.49428 -3.07774,-2.52352 -4.932685,-3.20941 -2.634645,-1.00281 -5.572849,-1.45784 -8.346898,-0.8024 -0.170796,0.017 -0.354177,0.13131 -0.51694,0.0427 -0.788442,-0.7864 -0.911199,-2.16932 -0.105431,-2.99573 1.261606,-1.38162 3.158625,-1.90151 4.903146,-2.38637 1.94047,-0.43674 3.910761,-0.90418 5.914103,-0.82362 3.938331,0.0402 7.952619,0.70243 11.47036,2.55024 2.812167,1.46081 5.196992,3.63844 7.155325,6.11132 1.632839,2.06299 3.048064,4.29013 4.361166,6.56819 2.806824,5.04691 5.089951,10.35925 7.405008,15.64191 1.090703,2.44405 2.118273,4.92481 3.450222,7.25 1.249229,2.07128 2.992219,3.99501 5.292087,4.88092 -1.594294,-1.80726 -2.53998,-4.08251 -3.275092,-6.35073 -0.677641,-2.27469 -1.146675,-4.74715 -0.504016,-7.08359 0.358015,-1.36346 1.387372,-2.48836 2.70118,-2.99081 0.264845,-1.07046 0.100141,-2.19001 -0.182062,-3.23852 -0.652568,-2.32575 -1.821323,-4.46638 -3.092233,-6.50644 -2.720734,-4.2589 -6.056732,-8.12043 -9.826404,-11.4833 -3.007133,-2.61327 -6.334694,-5.06491 -10.230121,-6.1341 -3.489181,-1.02594 -7.029432,-1.98295 -10.666176,-2.27117 0.531151,-0.12012 1.077747,-0.1389 1.62018,-0.16906 6.862744,-0.34546 13.815231,1.68179 19.424377,5.64839 2.707651,1.78011 5.076165,4.01837 7.298242,6.36226 3.895566,4.12556 7.30331,8.66959 10.850164,13.08927 0.954187,1.15756 1.896301,2.33756 3.012619,3.34726 0.373545,0.31306 0.800855,0.69919 1.324297,0.66441 0.360525,-0.11325 0.450326,-0.55224 0.51911,-0.87923 0.14297,-1.04014 -0.202376,-2.06917 -0.569579,-3.02935 -0.86873,-2.09731 -2.121926,-4.00711 -3.451631,-5.83828 -1.981257,-2.68698 -4.203479,-5.19868 -6.632053,-7.48871 -2.213358,-2.04723 -4.417291,-4.10318 -6.635854,-6.14535 0.42873,-0.33802 1.010744,-0.28441 1.525084,-0.33573 3.666001,-0.10026 7.405433,1.02867 10.264019,3.35964 -0.312911,0.29667 -0.725915,0.56004 -0.807007,1.01363 -0.135431,0.64345 0.116654,1.28297 0.384279,1.85804 0.567654,1.1502 1.373295,2.16398 2.196761,3.14216 1.744521,2.02051 3.332063,4.17366 4.801166,6.40207 2.612566,3.99249 4.903428,8.20539 6.706467,12.62648 0.865581,2.16863 1.650281,4.39239 2.037241,6.7038 0.14563,1.04818 0.26995,2.15695 -0.0889,3.17775 -0.19276,0.57301 -0.71679,1.03155 -1.33099,1.05659 -1.383084,0.0833 -2.665031,-0.65955 -3.632945,-1.58712 -1.797133,-1.72173 -3.046799,-3.9012 -4.563441,-5.85292 -0.919146,-1.17606 -1.920634,-2.3543 -3.256527,-3.0662 -0.962768,-0.51701 -2.11855,-0.65103 -3.167626,-0.34348 -0.909444,0.24672 -1.872669,0.7196 -2.245007,1.64381 -0.417693,1.04169 -0.129919,2.19845 0.252505,3.20349 0.824322,2.07002 2.138944,3.89585 3.492419,5.64586 1.948769,2.48667 4.107692,4.80061 6.330615,7.0442 2.377791,2.38314 4.830141,4.69314 7.378837,6.89356 -3.216433,-0.15663 -6.421896,-0.51443 -9.614982,-0.92507 -3.154691,-0.41154 -6.309934,-0.94835 -9.333803,-1.96213 -2.820046,-0.95485 -5.534731,-2.34643 -7.740636,-4.36975 -1.801067,-1.60977 -3.098139,-3.68344 -4.273672,-5.77231 -2.88025,-5.24989 -4.513929,-11.04865 -6.179394,-16.76723 -0.524176,-1.73242 -1.010888,-3.48679 -1.755357,-5.14059 -0.338142,-0.67337 -0.682718,-1.42648 -1.372379,-1.80416 -0.523427,-0.26449 -1.110167,0.0498 -1.480639,0.42974 -1.165894,1.19129 -1.894749,2.77194 -2.164262,4.41055 -0.409984,2.39819 -0.10644,4.85025 0.379707,7.21131 0.750913,3.44727 1.970992,6.77258 3.37173,10.00224 1.346909,3.11713 2.920761,6.13129 4.582436,9.08989 -3.240073,-0.16445 -6.449475,-0.72676 -9.615835,-1.41832 -4.203341,-0.92302 -8.293165,-2.28735 -12.30858,-3.82088 -2.768838,-1.14516 -5.263107,-3.05312 -6.877652,-5.59775 -1.007979,-1.59668 -1.723006,-3.43882 -1.746355,-5.34652 0.01648,-0.71376 0.09254,-1.53845 0.662196,-2.04076 0.467652,-0.40171 1.058034,-0.0139 1.546468,0.13054 2.015161,0.65472 4.138209,1.04207 6.262665,0.99944 0.901087,-0.0541 1.925281,-0.14278 2.58978,-0.82913 0.535256,-0.59099 0.319168,-1.46558 -0.0043,-2.10322 -0.704713,-1.44167 -2.197462,-2.24824 -3.616909,-2.84676 -2.6663,-1.07085 -5.468615,-1.73468 -8.200605,-2.61159 -5.566944,-1.70865 -10.961433,-4.11204 -15.706613,-7.51543 -1.475572,-1.08372 -3.034699,-2.05412 -4.437969,-3.235 -2.116159,-1.7576 -4.1054381,-3.79007 -5.285755,-6.30965 -0.772165,-1.65084 -1.101404,-3.55629 -0.651882,-5.34385 0.513847,-2.10575 2.0213505,-3.90725 3.93467,-4.89809 0.701931,-0.36457 1.520866,-0.52503 2.125584,-1.06294 0.2731,-0.22673 0.408124,-0.61735 0.272636,-0.95562 -0.211743,-0.55689 -0.682125,-0.95745 -1.120112,-1.33558 -1.103515,-0.88971 -2.318857,-1.62763 -3.5323704,-2.35572 -2.9985486,-1.76759 -6.0663046,-3.41533 -9.11675562,-5.09037 -1.286083,-0.7098 -2.59751498,-1.37557 -3.84535098,-2.15301 -3.049138,-1.9444 -5.723737,-4.42516 -8.108142,-7.13267 -3.309277,-3.79358 -6.088812,-8.06402 -8.131544,-12.66797 -1.5964,-3.63182 -2.762932,-7.51684 -2.889251,-11.5037 -0.09117,-2.75674 0.447146,-5.565533 1.82892,-7.973993 z"
           inkscape:connector-curvature="0" />
        <path
           style="stroke:none;stroke-width:0.14066462"
           id="path4"
           d="m 9.4437058,101.37478 c -0.097916,-0.82537 0.6201622,-1.428453 1.2826782,-1.770693 1.349861,-0.67582 2.86337,-0.92552 4.348788,-1.10233 3.33558,-0.35443 6.704358,-0.19326 10.033046,0.15726 6.268435,0.70417 12.536029,2.062713 18.249829,4.806233 6.260842,2.91879 11.637605,7.3434 16.823491,11.83313 2.909362,2.53703 5.89919,4.97742 8.859899,7.45255 4.336832,3.65081 8.61346,7.37617 12.787539,11.21027 -1.18926,-0.66681 -2.269197,-1.51637 -3.412805,-2.25921 -2.13754,-1.43717 -4.196727,-2.98772 -6.361977,-4.38255 -5.798055,-3.71889 -11.704141,-7.30908 -17.968502,-10.1927 -1.9686,-0.95438 -4.002469,-1.77252 -5.982467,-2.69556 0.970323,0.12031 1.981965,0.32913 2.940879,0.0259 0.428926,-0.12066 0.790084,-0.52422 0.762444,-0.98628 -0.02855,-0.66109 -0.383354,-1.24852 -0.734677,-1.78912 -1.202375,-1.79783 -2.971262,-3.12022 -4.773876,-4.26762 -1.635088,-1.02128 -3.371592,-1.8835 -5.177162,-2.55925 -1.463052,-0.53297 -2.984059,-1.01695 -4.553876,-1.03199 -0.576108,0.012 -1.290092,0.0998 -1.578542,0.67505 -0.244206,0.54602 0.09042,1.12802 0.428975,1.54858 0.817272,0.99447 1.908534,1.71146 2.975053,2.40972 2.044842,1.29438 4.219375,2.36894 6.410367,3.38988 -1.814709,0.20552 -3.652779,-0.0993 -5.434436,-0.44376 -2.947062,-0.7143 -5.94716,-1.17629 -8.919964,-1.77167 -4.537842,-0.89943 -9.079199,-1.86296 -13.46892,-3.34247 -2.108844,-0.74178 -4.239069,-1.55645 -6.043234,-2.90683 -0.652993,-0.51485 -1.3473279,-1.14552 -1.4921701,-2.00673 z"
           inkscape:connector-curvature="0" />
        <path
           style="stroke:none;stroke-width:0.14066462"
           id="path6"
           d="m 0.11904798,118.14059 c 0.123363,-1.81302 1.08037402,-3.54559 2.51564702,-4.65149 0.706191,-0.52409 1.620175,-0.9233 2.511426,-0.69351 8.424545,2.59189 17.045739,4.61324 25.80211,5.67863 3.852949,0.55923 7.656657,1.46924 11.336306,2.74142 3.387764,1.16272 6.664972,2.62367 9.894487,4.16606 5.184339,2.48217 10.302982,5.10359 15.347919,7.85893 0.63495,0.36044 1.303936,0.66914 1.885891,1.11608 -3.193086,-1.24878 -6.412197,-2.43519 -9.649872,-3.56768 -2.855071,-1.02529 -5.793839,-1.79375 -8.673663,-2.74366 -2.868293,-0.96426 -5.790182,-1.93991 -8.314404,-3.65137 -1.385251,-0.84339 -2.870547,-1.53705 -4.42953,-1.99097 -0.73575,-0.19242 -1.514116,-0.38009 -2.272578,-0.22055 -0.311614,0.0599 -0.653558,0.29711 -0.64503,0.64336 0.03764,0.3561 0.284042,0.64279 0.52054,0.89187 1.180881,1.15868 2.678394,1.89672 4.075198,2.74802 -1.434221,0.0856 -2.873642,-0.029 -4.306592,-0.11356 -1.477258,-0.11685 -2.979838,-0.27356 -4.362851,-0.84338 -2.186915,-0.87617 -4.134276,-2.22982 -6.14789,-3.43067 -1.733973,-1.14782 -3.790912,-1.65534 -5.809167,-2.03865 -1.843833,-0.31391 -3.736334,-0.5077 -5.601547,-0.27375 -0.796964,0.12611 -1.668142,0.30012 -2.244586,0.90875 -0.529841,0.5708 -0.327087,1.47206 0.138555,2.01305 0.738841,0.85813 1.851709,1.24465 2.90374,1.56335 3.036668,0.83446 6.211609,0.88543 9.336333,0.96674 -1.183229,0.49177 -2.462756,0.6998 -3.717485,0.92151 -2.286222,0.39768 -4.620129,0.42893 -6.928999,0.24834 -2.750837,-0.23142 -5.507583,-0.77314 -8.038982,-1.90291 -1.375618,-0.62978 -2.70864,-1.42507 -3.758136,-2.52886 -0.95424502,-1.01394 -1.47613502,-2.42323 -1.36695102,-3.81511 z"
           inkscape:connector-curvature="0" />
        <path
           style="stroke:none;stroke-width:0.14066462"
           id="path8"
           d="m 23.45109,141.59361 c 0.558916,-1.476 1.841581,-2.51466 3.115299,-3.36963 2.163844,-1.39044 4.571177,-2.34403 7.000458,-3.16101 3.605234,-1.20437 7.47829,-1.39394 11.237133,-0.99046 4.27128,0.46881 8.438469,1.65928 12.41478,3.26666 2.014034,0.8541 4.045373,1.72525 5.878935,2.93173 -1.130184,-0.1488 -2.225874,-0.48586 -3.334456,-0.73769 -3.598201,-0.89788 -7.191478,-1.81795 -10.79601,-2.68937 -2.023598,-0.54094 -4.08757,-0.96436 -6.17841,-1.11389 -1.567287,-0.10045 -3.175223,-0.10248 -4.692992,0.35121 -0.588936,0.1913 -1.199016,0.45522 -1.587968,0.95584 -0.141279,0.16226 -0.06759,0.41675 0.09075,0.53649 0.386894,0.33085 0.894318,0.45771 1.374347,0.58959 1.665051,0.40918 3.380592,0.53011 5.082635,0.68786 -1.985479,0.9717 -4.03046,1.82175 -6.097388,2.60722 -1.55139,0.55183 -3.104748,1.09896 -4.646435,1.6763 -1.916839,0.67711 -3.83508,1.41312 -5.849257,1.7389 -0.751698,0.10268 -1.603999,0.15294 -2.230519,-0.35561 -0.890913,-0.65546 -1.179712,-1.91206 -0.780871,-2.92414 z"
           inkscape:connector-curvature="0" />
        <path
           style="stroke:none;stroke-width:0.14066462"
           id="path10"
           d="m 67.477712,98.375807 c 0.477216,-0.84834 1.374938,-1.57516 2.394671,-1.51651 1.119748,0.0749 2.04555,0.81093 2.835661,1.54548 1.580647,1.53775 2.790365,3.403953 3.930171,5.279853 3.077458,5.21697 5.435281,10.81191 7.817575,16.36914 4.431077,10.50568 8.592641,21.12361 12.714959,31.75504 2.577818,6.67398 5.125391,13.35963 7.644701,20.05597 0.14298,0.40159 0.33766,0.79277 0.39241,1.22056 -1.91599,-4.7968 -3.74843,-9.62822 -5.64009,-14.43501 -4.122456,-10.50933 -8.311592,-20.997 -12.877563,-31.32179 -2.080431,-4.65065 -4.198556,-9.29132 -6.676929,-13.74504 -0.856955,-1.50596 -1.738897,-3.01023 -2.842971,-4.35189 -0.639703,-0.79128 -1.500469,-1.4532 -2.505657,-1.6815 -0.30751,-0.0895 -0.66619,0.12248 -0.673069,0.45637 -0.06942,0.63951 0.173242,1.26053 0.385985,1.85059 0.49954,1.23137 1.111672,2.42604 1.897141,3.50114 1.406044,1.68375 2.570646,3.54615 3.779944,5.371 -0.990042,-0.63336 -1.755219,-1.54732 -2.58415,-2.36683 -2.163565,-2.2948 -4.228945,-4.71184 -5.866563,-7.41598 -0.619118,-1.08317 -1.250548,-2.22278 -1.386687,-3.48496 -0.08495,-0.67103 0.250076,-1.41762 0.924224,-1.64058 1.148499,-0.3995 2.383565,-0.0858 3.521542,0.20009 -0.282091,-0.84841 -0.771237,-1.61258 -1.216203,-2.38371 -0.608458,-0.95266 -1.292639,-1.904743 -2.253163,-2.531263 -0.56573,-0.369 -1.333139,-0.53542 -1.950034,-0.19241 -0.534177,0.29759 -0.723778,0.93778 -0.771365,1.508633 -0.0809,1.13094 0.197394,2.24697 0.518572,3.32081 -0.586682,-0.81106 -1.030016,-1.723 -1.376909,-2.66082 -0.297573,-0.85567 -0.522693,-1.840873 -0.1365,-2.705963 z"
           inkscape:connector-curvature="0" />
        <path
           style="stroke:none;stroke-width:0.14066462"
           id="path12"
           d="m 28.150695,160.84356 c 2.657155,-0.36522 5.349192,-0.51133 8.030122,-0.38644 1.94047,0.11226 3.912026,0.34523 5.72463,1.08743 0.912421,0.3796 1.788127,0.92362 2.389891,1.72286 0.809862,1.08683 1.528599,2.27821 1.853679,3.60608 0.155124,0.67339 0.229618,1.43126 -0.125559,2.05609 -0.220968,0.39619 -0.670575,0.60859 -1.11173,0.62333 -0.715786,0.0334 -1.398021,-0.25365 -2.01952,-0.57911 -3.536593,-1.88477 -7.043643,-3.82439 -10.550831,-5.76416 -1.395097,-0.79204 -2.826376,-1.52185 -4.190541,-2.36612 z"
           inkscape:connector-curvature="0" />
        <path
           style="stroke:none;stroke-width:0.14066462"
           id="path14"
           d="m 40.471507,228.76629 c 0.322577,-3.01613 1.57868,-5.90833 3.480749,-8.26306 1.607655,-1.99575 3.676268,-3.5923 5.941674,-4.77571 5.66189,-2.98884 11.777003,-5.09965 18.050084,-6.36282 2.704136,-0.53453 5.440911,-0.91829 8.195687,-1.05866 4.203479,-0.40753 8.50669,0.17069 12.438551,1.71147 -5.027355,-0.14691 -10.097752,0.39142 -14.9203,1.85523 -3.083509,0.93231 -6.06349,2.23896 -8.777192,3.9794 -3.298867,2.0696 -5.959962,5.0026 -8.199483,8.15686 -2.703855,3.8355 -4.841252,8.04911 -6.555108,12.41183 -1.483871,3.82241 -2.654624,7.7758 -3.341633,11.82089 -0.37926,2.26723 -0.609229,4.56583 -0.53448,6.8664 0.03296,1.13445 0.207369,2.25725 0.327074,3.38495 0.419362,3.66952 0.851553,7.34269 1.021207,11.03444 0.152635,3.65953 0.0082,7.39741 -1.13516,10.90798 -1.241972,3.6186 -2.671924,7.18234 -4.398582,10.59908 1.452642,-6.4333 2.476959,-13.00895 2.388201,-19.62272 -0.08334,-3.6508 -0.49366,-7.37054 -1.93273,-10.75999 -0.450692,-1.05222 -0.89678,-2.12348 -1.579381,-3.05046 -0.219256,-0.25424 -0.514878,-0.62801 -0.892644,-0.50958 -0.442718,0.31123 -0.516691,0.898 -0.622584,1.38744 -0.28594,1.87506 -0.219336,3.78191 -0.146936,5.67047 -1.006571,-1.45025 -1.494707,-3.19027 -1.841302,-4.90244 -0.80428,-4.43853 -0.18126,-9.01182 1.015512,-13.32178 1.25545,-4.59256 3.451211,-8.90774 6.325129,-12.69752 1.645635,-2.21406 3.530681,-4.22993 5.315714,-6.32878 0.842584,-1.04034 1.737068,-2.10631 2.120379,-3.41478 0.127398,-0.5156 0.204317,-1.13627 -0.150174,-1.58318 -0.403578,-0.45014 -1.064312,-0.44188 -1.61539,-0.36466 -1.208931,0.19012 -2.338694,0.70348 -3.408589,1.27873 -1.438155,0.8234 -2.918225,1.73931 -3.840141,3.15904 -0.835476,1.19575 -1.750008,2.33518 -2.722564,3.42238 -0.03706,-0.20863 -0.03147,-0.42195 -0.0048,-0.63104 z"
           inkscape:connector-curvature="0" />
        <path
           style="stroke:none;stroke-width:0.14066462"
           id="path16-6"
           d="m 131.76003,119.49097 c 2.7033,-5.8899 5.34793,-11.86309 9.03292,-17.22157 0.94254,-1.31839 1.95834,-2.611723 3.21799,-3.644193 0.72175,-0.56636 1.57671,-1.09532 2.52943,-1.06582 0.89775,0.0274 1.65014,0.66568 2.11883,1.39006 0.3705,0.62905 0.30381,1.405563 0.13693,2.087183 -0.32224,1.23259 -0.93596,2.3747 -1.65689,3.41717 0.30594,-1.07796 0.64156,-2.18157 0.5684,-3.31476 -0.0413,-0.53136 -0.18313,-1.11515 -0.63514,-1.448293 -0.54981,-0.38708 -1.30241,-0.32262 -1.87027,-0.0159 -0.86033,0.455143 -1.5016,1.219123 -2.07678,1.984223 -0.65874,0.92289 -1.2246,1.91177 -1.70907,2.93637 1.12281,-0.17441 2.29452,-0.51849 3.41983,-0.15243 0.6464,0.16826 1.07422,0.82326 1.03299,1.4788 -0.0457,1.14677 -0.61977,2.18467 -1.1574,3.16735 -1.29777,2.19802 -2.93469,4.17183 -4.64686,6.0542 -1.07064,1.16482 -2.17242,2.30297 -3.34585,3.36414 -0.28836,0.25377 -0.56428,0.53156 -0.91285,0.69926 1.00387,-1.59753 2.10814,-3.13753 3.27791,-4.61858 1.07152,-1.17104 1.84439,-2.58289 2.48582,-4.02737 0.24032,-0.63932 0.55187,-1.31489 0.44752,-2.01474 -0.0492,-0.34187 -0.43988,-0.44957 -0.72986,-0.37649 -1.16841,0.28484 -2.10927,1.11863 -2.82103,2.05623 -1.84552,2.38188 -3.2758,5.05099 -4.70256,7.6952 -3.07127,5.84574 -5.82844,11.85071 -8.52315,17.87707 -5.39252,12.07352 -10.38906,24.31669 -15.44356,36.53201 -0.12777,0.30841 -0.26295,0.61512 -0.44331,0.89574 4.6017,-11.57544 9.31692,-23.1098 14.13257,-34.60069 2.6964,-6.40432 5.42431,-12.7971 8.27445,-19.13461 z"
           inkscape:connector-curvature="0" />
        <path
           style="stroke:none;stroke-width:0.14066462"
           id="path18"
           d="m 63.526441,221.26887 c 0.46771,-0.65654 1.046656,-1.22415 1.601609,-1.80656 0.908482,-0.90069 1.778563,-1.86212 2.87378,-2.54308 2.425055,-1.55532 5.117517,-2.64688 7.852882,-3.52069 3.438266,-1.04957 7.057003,-1.74171 10.662939,-1.40642 2.335318,0.0878 4.653049,-0.39246 6.87963,-1.06233 2.767291,-0.85341 5.429651,-2.0274 7.976809,-3.40085 0.38265,-0.17491 0.71068,-0.48851 1.13446,-0.55971 -1.2872,2.35585 -2.875467,4.63518 -5.059426,6.24269 -0.996049,0.70332 -2.159907,1.25121 -3.396908,1.27659 -1.294074,-0.0107 -2.645199,0.0536 -3.825378,0.63483 -0.708163,0.34145 -1.271112,1.06893 -1.189021,1.88505 1.506233,-0.0563 3.023023,-0.0164 4.513221,0.23256 0.641123,0.0893 1.190728,0.58061 1.361157,1.20468 0.279035,0.9814 0.04673,2.01966 -0.233281,2.97351 -0.80581,2.47837 -2.197462,4.71592 -3.636882,6.86894 -1.247034,1.87744 -2.68402,3.61662 -4.004724,5.43964 -3.678378,4.97277 -8.428059,9.16008 -13.855461,12.13147 -1.510741,0.79718 -3.050313,1.56926 -4.680057,2.09084 5.165912,-3.86194 10.186515,-8.02786 14.24511,-13.07407 0.845886,-1.18854 1.893207,-2.22067 2.673609,-3.45796 1.379558,-2.12094 2.404241,-4.57455 2.439691,-7.13591 -0.0016,-1.26152 -0.293064,-2.63296 -1.252999,-3.52253 -0.787176,-0.7462 -1.942298,-0.92077 -2.979843,-0.76091 -1.409175,0.19529 -2.686831,0.89536 -3.83156,1.70964 -2.042169,1.48148 -3.614942,3.51844 -4.859685,5.69157 -0.873021,1.54436 -1.592603,3.17592 -2.124031,4.86925 -0.157915,0.54242 -0.350945,1.08617 -0.354039,1.65703 1.677566,-2.55447 3.453173,-5.06013 5.515597,-7.32272 1.208069,-1.35367 2.7635,-2.41577 4.501552,-2.95311 0.684754,-0.18149 1.463472,-0.33562 2.124036,0.01 0.608597,0.32682 0.697243,1.10129 0.59899,1.71569 -0.151312,0.91124 -0.487062,1.79249 -0.948217,2.59034 -0.0947,-0.60251 -0.0553,-1.31237 -0.551827,-1.75662 -0.583354,-0.52655 -1.438719,-0.29372 -2.065524,0.0167 -1.385687,0.71777 -2.487651,1.86606 -3.483136,3.04342 -1.780955,2.18199 -3.41154,4.56218 -4.28816,7.26167 -0.270879,0.89868 -0.519333,1.83174 -0.445727,2.77869 1.865918,-0.50199 3.379046,-1.76773 4.877968,-2.92371 -1.880261,2.83509 -4.23752,5.3385 -6.873856,7.48139 -2.264418,1.81514 -4.747433,3.43475 -7.515149,4.35793 -0.882022,0.30843 -1.819638,0.37829 -2.721299,0.60134 -2.348678,0.53746 -4.614643,1.5068 -6.547797,2.95424 -2.870542,2.12291 -4.942813,5.24074 -5.925496,8.66227 -0.04562,-1.33132 0.110125,-2.66194 0.211137,-3.9877 0.244462,-2.50749 0.592887,-5.02694 1.377133,-7.42963 0.342843,-1.09178 0.920891,-2.08591 1.530295,-3.04623 0.844083,-1.08205 2.153293,-1.6372 3.395781,-2.12573 2.0101,-0.76992 4.126396,-1.26806 6.063208,-2.22376 1.110353,-0.56442 2.220956,-1.35436 2.675582,-2.56559 0.476291,-1.27482 0.115006,-2.67389 -0.400611,-3.87713 -0.234121,-0.66301 -1.03891,-0.85699 -1.668145,-0.77563 -1.258916,0.19318 -2.342346,0.9387 -3.346269,1.67588 -2.69007,2.06468 -4.973339,4.60226 -7.148292,7.19077 0.332683,-1.31941 0.835487,-2.59301 1.282676,-3.8777 0.518572,-1.3978 1.065886,-2.78769 1.731299,-4.1233 0.978478,-2.00841 2.563755,-3.63309 4.182239,-5.13735 1.6289,-1.45771 3.373283,-2.84241 5.369873,-3.76363 2.703016,-1.15106 5.733631,-1.54196 8.214535,-3.19534 0.903112,-0.60851 1.698667,-1.51889 1.827235,-2.63745 0.09631,-0.77483 -0.05959,-1.72413 -0.803631,-2.13952 -0.8379,-0.44777 -1.835396,-0.30127 -2.726503,-0.12565 -2.472462,0.5853 -4.735758,1.7856 -6.951785,2.98941 z"
           inkscape:connector-curvature="0" />
        <path
           style="stroke:none;stroke-width:0.14066462"
           id="path20"
           d="m 139.49659,123.10887 c 4.17633,-3.97167 8.54355,-7.76159 13.21361,-11.14388 1.10076,-0.6668 2.00335,-1.58866 3.0015,-2.39143 3.37131,-2.77532 6.93294,-5.31642 10.62932,-7.6395 4.70847,-2.933143 9.63708,-5.529533 14.79652,-7.574373 4.8729,-1.91473 9.94991,-3.30365 15.11441,-4.15833 10.57137,-1.7365 21.65673,-1.28076 31.78599,2.39144 1.512,0.43507 2.96971,1.05495 4.326,1.85607 l 1.14882,0.79449 c 1.08637,0.91204 2.08634,1.94905 2.80992,3.17804 1.17778,1.934703 1.73439,4.194053 1.83497,6.442443 0.16117,3.77825 -0.78983,7.51768 -2.16512,11.00982 -1.91528,4.7999 -4.69482,9.22957 -7.99467,13.19504 -2.98701,3.53026 -6.42795,6.75514 -10.47557,9.037 -4.39704,2.33447 -8.85948,4.54853 -13.17142,7.03942 -1.16313,0.70752 -2.36373,1.3976 -3.33502,2.36429 -0.32854,0.34402 -0.6999,0.84143 -0.47927,1.33603 0.30918,0.58665 0.97732,0.82981 1.55252,1.0788 2.60229,1.00264 4.58018,3.54363 4.77823,6.34356 0.16533,2.13754 -0.67762,4.2295 -1.87998,5.95813 -1.71864,2.4629 -4.06703,4.40463 -6.52515,6.08937 -1.89503,1.23428 -3.71875,2.58288 -5.69973,3.67923 -4.5294,2.61242 -9.49134,4.37157 -14.52362,5.73306 -2.34207,0.67374 -4.73688,1.21356 -6.97879,2.18748 -1.30152,0.58614 -2.622,1.43956 -3.17002,2.82047 -0.25964,0.58319 -0.33559,1.3533 0.14765,1.8465 0.5756,0.5674 1.41832,0.70893 2.19184,0.79235 1.93597,0.14847 3.88206,-0.14571 5.75909,-0.60929 0.62116,-0.13651 1.20258,-0.41341 1.82779,-0.53855 0.64124,-0.0542 0.98854,0.63063 1.10154,1.16711 0.26768,1.39599 -0.0748,2.83341 -0.57814,4.13751 -1.27848,3.21869 -3.94606,5.75051 -7.04462,7.22144 -1.27035,0.63503 -2.64647,1.00021 -3.97743,1.48049 -3.86912,1.33136 -7.84515,2.35459 -11.87674,3.05032 -2.42393,0.3965 -4.86742,0.74703 -7.32567,0.79488 2.84269,-4.72633 5.34975,-9.67956 7.1791,-14.88935 0.9417,-2.759 1.71104,-5.61491 1.851,-8.54017 0.0915,-2.07115 -0.18541,-4.25511 -1.33511,-6.03015 -0.42193,-0.63384 -0.87574,-1.34274 -1.61891,-1.6258 -0.50302,-0.18027 -1.00869,0.14045 -1.31793,0.51835 -0.71973,0.88244 -1.12058,1.96663 -1.52987,3.01584 -1.09477,3.0174 -1.95173,6.11385 -2.98715,9.15179 -1.77056,5.2164 -3.86941,10.43998 -7.32455,14.79088 -1.82401,2.18987 -4.23303,3.83832 -6.82815,4.98192 -4.44331,1.96382 -9.321,2.55503 -14.10866,3.04469 -2.53196,0.23117 -5.06898,0.47941 -7.61107,0.5274 4.09109,-3.49706 8.08286,-7.12761 11.72382,-11.09661 1.79671,-1.98478 3.53772,-4.04213 4.92101,-6.34186 0.66905,-1.16034 1.30638,-2.40593 1.41495,-3.76236 0.0794,-0.90114 -0.29177,-1.86071 -1.07784,-2.35135 -0.99139,-0.62403 -2.22292,-0.93532 -3.38299,-0.6874 -1.21859,0.25355 -2.24022,1.03839 -3.10236,1.89926 -2.10912,2.13979 -3.55037,4.83717 -5.67989,6.95952 -0.84234,0.81987 -1.84804,1.55927 -3.03033,1.76787 -0.54816,0.0878 -1.16839,0.14632 -1.64803,-0.18883 -0.54793,-0.36011 -0.73102,-1.04255 -0.79387,-1.659 -0.0993,-1.18202 0.12727,-2.36274 0.40158,-3.50873 0.78453,-3.06101 2.05779,-5.97037 3.45515,-8.79731 2.9036,-5.75656 6.46634,-11.20774 10.78869,-16.00342 0.9411,-1.16546 1.99237,-2.38131 2.28889,-3.89331 0.14948,-0.66625 -0.28335,-1.25461 -0.8191,-1.59767 2.67333,-2.11222 6.08796,-3.1696 9.47503,-3.20785 0.81262,0.01 1.65956,-0.003 2.42027,0.32607 -2.38328,2.19985 -4.84477,4.31489 -7.24451,6.49645 -2.32687,2.16033 -4.47327,4.51717 -6.39925,7.03999 -1.51454,2.02936 -2.99011,4.15059 -3.83649,6.55651 -0.28155,0.90669 -0.55537,1.97775 -0.0553,2.85719 0.34895,0.40549 0.89046,0.0428 1.23269,-0.18737 1.1286,-0.85791 2.04202,-1.95876 2.97393,-3.01937 4.31038,-5.10514 8.38403,-10.4442 13.24006,-15.05674 3.85646,-3.69694 8.42932,-6.73586 13.52786,-8.40555 4.3682,-1.41734 9.06484,-1.94202 13.61928,-1.28426 -3.96322,0.16153 -7.81589,1.21691 -11.62058,2.2595 -2.20182,0.63908 -4.22388,1.77012 -6.11582,3.04426 -2.50073,1.69445 -4.78105,3.69358 -6.9086,5.83266 -2.58598,2.6241 -4.95266,5.47509 -6.95558,8.56915 -1.37835,2.18846 -2.68937,4.50225 -3.2156,7.06108 -0.10221,0.73143 -0.2499,1.54591 0.0535,2.2398 1.03038,0.48852 1.93709,1.29176 2.35332,2.37654 0.74683,1.90009 0.51296,4.01639 0.0725,5.95897 -0.71648,2.8908 -1.92374,5.70733 -3.81961,8.02351 2.59132,-0.98714 4.47327,-3.23613 5.80143,-5.59451 1.81598,-3.3481 3.30942,-6.85782 4.93888,-10.29722 2.59793,-5.50266 5.21851,-11.04794 8.81207,-15.98653 1.88575,-2.6106 4.08856,-5.05155 6.79523,-6.83124 3.46907,-2.32814 7.66116,-3.35232 11.79782,-3.50508 1.45841,-0.0364 2.93497,-0.11154 4.3765,0.17561 1.53156,0.27583 3.05946,0.59878 4.53911,1.09534 1.13039,0.38836 2.26695,0.85449 3.18675,1.64113 0.5511,0.47176 1.00385,1.15257 0.96606,1.9046 -0.0183,0.62009 -0.3501,1.17396 -0.74843,1.62876 -3.28762,-0.9909 -6.86176,-0.37053 -9.95863,0.97164 -2.65758,1.09526 -4.92383,3.24949 -5.8916,5.98697 -0.88038,2.29691 -0.83775,4.78738 -1.18339,7.18894 -0.0391,0.30135 -0.0348,0.6686 0.24163,0.8649 0.41241,0.29888 0.95906,0.25278 1.4411,0.20128 1.15511,-0.16919 2.26977,-0.54935 3.3647,-0.94819 5.15212,-1.95256 10.02236,-4.55331 15.03564,-6.8242 2.18326,-1.06237 4.34527,-2.25232 6.1365,-3.91245 1.0282,-0.98721 1.9686,-2.20112 2.17664,-3.6494 0.18115,-1.19675 -0.25362,-2.40551 -0.94614,-3.37019 -1.24738,-1.74508 -3.06466,-2.9728 -4.88275,-4.06084 -3.14639,-1.81837 -6.53598,-3.1689 -9.94836,-4.39479 -0.79505,-0.30697 -1.62862,-0.48153 -2.45882,-0.65371 -4.98361,-1.02643 -10.12574,-1.14837 -15.17912,-0.63043 -5.32739,0.53665 -10.56251,1.76323 -15.67848,3.31294 -5.29166,1.59781 -10.49119,3.51253 -15.51671,5.81409 -0.99051,0.42326 -1.92571,0.96685 -2.92724,1.35676 1.54506,-1.30189 3.26975,-2.37863 4.96729,-3.47076 7.07712,-4.39239 14.82043,-7.71517 22.88755,-9.79673 2.50875,-0.63033 5.0393,-1.21817 7.62162,-1.44532 4.89823,-0.4675 9.86622,0.16847 14.54754,1.64831 2.87547,0.88203 5.62251,2.11812 8.38769,3.28817 2.06665,0.83237 4.16128,1.79516 6.41994,1.91206 1.69993,0.10154 3.53208,-0.85637 4.10558,-2.51903 0.36356,-1.11678 0.051,-2.33165 -0.48628,-3.33783 -0.82104,-1.53071 -2.099,-2.76167 -3.46711,-3.80526 -2.29859,-1.71625 -4.93831,-2.92934 -7.66017,-3.8061 -4.50942,-1.44252 -9.2736,-1.97001 -13.99472,-1.89475 -0.83725,-0.006 -1.64732,0.22557 -2.46008,0.38692 -4.85941,1.10143 -9.52469,2.91359 -14.06098,4.94999 -5.66302,2.55532 -11.12601,5.52601 -16.53513,8.57675 -4.95632,2.82173 -9.80728,5.83251 -14.51378,9.05444 0.84354,-0.91312 1.75817,-1.75831 2.65688,-2.61777 3.85562,-3.60679 7.91337,-7.02592 12.33966,-9.91489 2.6082,-1.65956 5.3046,-3.17944 8.04236,-4.61591 4.39436,-2.27131 8.91223,-4.32558 13.58272,-5.96488 5.4945,-1.91586 11.2218,-3.18156 17.02183,-3.68725 0.99946,-0.0801 2.00011,-0.18677 3.00572,-0.13959 5.86276,0.10378 11.70526,0.62275 17.55916,0.92736 4.33993,0.19137 8.75905,0.34001 13.02133,-0.65456 2.69935,-0.63878 5.30376,-1.86999 7.29852,-3.82706 1.73862,-1.71526 3.19084,-3.86476 3.61677,-6.30824 0.33889,-1.88983 -0.12432,-3.92553 -1.34193,-5.42431 -1.70612,-2.15991 -4.65374,-3.12079 -7.33059,-2.65294 -0.93574,0.1413 -1.81852,0.49032 -2.67601,0.87214 -2.16454,0.87696 -4.45653,1.38183 -6.73375,1.86788 -3.11797,0.63832 -6.25817,1.16541 -9.3919,1.72272 -10.77392,1.76745 -21.32194,4.82199 -31.44276,8.90689 -2.55982,0.99351 -5.01526,2.23192 -7.44707,3.50029 -7.51838,3.97434 -14.57707,8.78803 -21.17847,14.13961 -4.80791,3.89571 -9.35096,8.13028 -13.44007,12.77953 0.39661,-0.85793 0.96869,-1.61835 1.46698,-2.41803 3.64026,-5.41474 8.11017,-10.24362 13.05101,-14.49268 4.02005,-3.43151 8.37953,-6.44876 12.86321,-9.23984 5.35314,-3.30153 10.94878,-6.20949 16.71377,-8.72359 4.36286,-1.934 8.87411,-3.5259 13.47793,-4.78204 5.40912,-1.503 10.91332,-2.61678 16.37899,-3.88431 2.22897,-0.53988 4.48439,-0.98451 6.67425,-1.67292 2.65955,-0.80141 5.26958,-1.78588 7.7367,-3.06579 1.72272,-0.92076 3.42181,-1.96565 4.76262,-3.40718 0.75357,-0.82998 1.43815,-1.89405 1.3297,-3.06536 -0.10751,-1.155223 -1.00749,-2.037533 -1.9354,-2.629733 -1.54281,-0.9643 -3.30942,-1.48134 -5.06463,-1.90333 -1.76984,-0.39615 -3.56627,-0.7389 -5.38731,-0.75666 -2.53619,-0.0522 -5.06562,0.24224 -7.55989,0.68592 -5.2624,0.95957 -10.38541,2.59034 -15.3451,4.578493 -10.90798,4.38719 -20.83665,10.81106 -30.4778,17.4593 -2.45376,1.67573 -4.85898,3.42265 -7.34256,5.05042 z"
           inkscape:connector-curvature="0" />
        <path
           style="stroke:none;stroke-width:0.14066462"
           id="path22"
           d="m 133.15261,134.44222 c 4.55276,-4.08068 9.27332,-7.97358 14.03074,-11.81358 2.26751,-1.81471 4.55556,-3.60495 6.78496,-5.46848 4.62336,-3.82157 9.25587,-7.70856 14.52362,-10.62637 4.79497,-2.7023 10.06863,-4.52124 15.48717,-5.45989 5.06717,-0.8997 10.24545,-1.416223 15.39012,-1.01258 1.78461,0.16697 3.60073,0.41212 5.25073,1.1496 0.64504,0.31611 1.36847,0.75141 1.55125,1.49864 0.15653,0.63673 -0.2481,1.23423 -0.65143,1.68389 -0.71437,0.75106 -1.61089,1.29569 -2.51888,1.77772 -2.1675,1.09892 -4.4934,1.83343 -6.82618,2.48119 -5.28604,1.42901 -10.69487,2.32321 -16.08922,3.22783 -3.12781,0.47934 -6.2396,1.48964 -9.43663,1.13429 2.68628,-1.27036 5.4267,-2.493 7.864,-4.21938 0.77982,-0.58605 1.61567,-1.20354 2.04738,-2.10729 0.2197,-0.4364 0.0965,-1.01754 -0.33134,-1.27922 -0.69481,-0.37276 -1.5196,-0.31034 -2.27525,-0.22917 -2.062,0.286 -4.0344,1.0238 -5.92226,1.8766 -2.27343,1.06668 -4.48003,2.35065 -6.31612,4.08069 -0.81391,0.79852 -1.58065,1.69458 -2.00785,2.76223 -0.21308,0.50597 -0.18363,1.22753 0.38633,1.48654 0.98055,0.48143 2.09394,0.2218 3.13134,0.15597 -2.25232,0.97184 -4.53714,1.87675 -6.76428,2.90866 -5.8103,2.5902 -11.3183,5.79665 -16.74331,9.10312 -2.47176,1.4871 -4.80145,3.18872 -7.22566,4.74799 -1.11594,0.71103 -2.19507,1.48007 -3.33938,2.14063 z"
           inkscape:connector-curvature="0" />
        <path
           style="stroke:none;stroke-width:0.14066462"
           id="path24-4"
           d="m 105.31509,176.52345 c 0.25801,-0.6921 0.67108,-1.37101 1.30615,-1.77491 0.50142,-0.32195 1.17997,-0.27682 1.65183,0.082 0.75801,0.58064 1.19323,1.48711 1.41959,2.39609 0.11401,0.4534 0.0463,0.99149 -0.31703,1.31656 -0.56199,0.4887 -1.35027,0.56267 -2.0644,0.54425 -0.70265,-0.0276 -1.48345,-0.18447 -1.95566,-0.75047 -0.40735,-0.52629 -0.25238,-1.24004 -0.0405,-1.81345 z"
           inkscape:connector-curvature="0" />
        <path
           style="stroke:none;stroke-width:0.14066462"
           id="path26"
           d="m 104.94936,185.56818 c -0.0993,-1.3377 -0.0673,-2.73676 0.4776,-3.98474 0.31483,-0.68528 0.79269,-1.3861 1.54337,-1.63312 0.60084,-0.20358 1.27984,0.0214 1.71864,0.46512 0.75481,0.74603 1.10159,1.80501 1.23308,2.83665 0.31274,2.53027 -0.36841,5.04352 -1.03976,7.46113 -0.23242,0.93211 -0.6115,1.83637 -0.79251,2.7732 0.62835,1.0451 0.91223,2.24698 1.14093,3.43475 0.46283,2.49384 0.58687,5.0372 0.61593,7.56959 0.0365,5.57847 -0.49727,11.14049 -1.09148,16.68141 -0.33726,2.96325 -0.67649,5.92677 -1.06013,8.88523 -0.19792,1.26553 -0.28755,2.56488 -0.68496,3.78992 -0.53253,-2.27173 -0.67135,-4.61338 -0.94724,-6.92478 -0.58336,-5.63333 -1.15879,-11.27328 -1.37643,-16.93602 -0.10348,-2.83538 -0.11204,-5.6768 0.0821,-8.50979 0.14038,-1.91922 0.36476,-3.84379 0.85347,-5.71028 0.22367,-0.83042 0.49352,-1.66828 1.00534,-2.37118 0.20514,-0.22242 -0.009,-0.50192 -0.0529,-0.74461 -0.6921,-2.32054 -1.39984,-4.6605 -1.6251,-7.08232 z"
           inkscape:connector-curvature="0" />
        <path
           style="stroke:none;stroke-width:0.14066462"
           id="path28"
           d="m 145.5733,135.00206 c 2.47401,-1.40861 5.04578,-2.64688 7.58365,-3.93776 4.546,-2.23826 9.11549,-4.43643 13.78429,-6.41206 4.9234,-2.08169 10.07398,-3.66586 15.36339,-4.48565 2.68768,-0.4365 5.40926,-0.62543 8.09736,-1.06503 6.69564,-1.02879 13.31109,-2.54744 19.81824,-4.42348 0.97376,-0.24327 1.96199,0.24686 2.6912,0.86409 1.53732,1.32825 2.4643,3.41787 2.21856,5.4575 -0.16058,1.36489 -0.94837,2.60047 -2.0101,3.44826 -1.90488,1.55758 -4.26171,2.45037 -6.63515,3.0015 -4.34668,0.9584 -8.9232,1.00529 -13.2544,-0.0643 -0.67204,-0.17571 -1.36185,-0.31584 -1.98267,-0.63232 2.41746,-0.0384 4.85194,-0.0172 7.25098,-0.38995 1.38462,-0.21911 2.79205,-0.49598 4.03806,-1.165 0.67204,-0.37328 1.3297,-0.95827 1.43281,-1.76266 0.093,-0.55484 -0.23799,-1.10012 -0.71374,-1.36925 -0.88271,-0.52151 -1.93076,-0.63573 -2.93327,-0.69964 -2.03753,-0.0956 -4.07787,0.15919 -6.06547,0.59238 -1.3812,0.31556 -2.76236,0.72513 -3.98024,1.46489 -2.29185,1.29853 -4.50043,2.8154 -7.01551,3.66023 -2.18508,0.64717 -4.49381,0.61721 -6.75021,0.66266 -0.48503,0.002 -0.97147,0.0174 -1.45293,-0.0333 1.34361,-0.7657 2.75182,-1.45419 3.93495,-2.46768 0.3155,-0.28804 0.65145,-0.60815 0.76955,-1.03611 0.0691,-0.34726 -0.26765,-0.6195 -0.56671,-0.70147 -0.66759,-0.18462 -1.36703,-0.0561 -2.02725,0.0825 -1.34978,0.32702 -2.64478,0.85434 -3.877,1.48852 -1.06003,0.54109 -2.02388,1.25471 -3.11629,1.73397 -4.91778,2.25654 -10.27259,3.25835 -15.37183,4.99978 -3.098,1.00267 -6.14999,2.14148 -9.22971,3.18943 z"
           inkscape:connector-curvature="0" />
        <path
           style="stroke:none;stroke-width:0.14066462"
           id="path30"
           d="m 151.80474,141.04501 c 0.83721,-0.5874 1.78377,-0.99658 2.70006,-1.44378 4.82775,-2.21279 9.98184,-3.79977 15.27618,-4.34949 2.8832,-0.2841 5.81662,-0.23256 8.66086,0.35085 2.12587,0.42524 4.15411,1.22418 6.13931,2.08043 1.87562,0.84901 3.73267,1.82878 5.24932,3.24372 0.84727,0.8151 1.6251,1.85931 1.6628,3.08084 0.0515,1.1695 -0.87294,2.36528 -2.07987,2.41648 -1.07423,0.0473 -2.12277,-0.26911 -3.14357,-0.5612 -2.09998,-0.6433 -4.12738,-1.49301 -6.1763,-2.27201 -2.80655,-1.01392 -5.56695,-2.16863 -8.21848,-3.53547 1.11677,-0.1632 2.25402,-0.15826 3.37314,-0.33701 0.94632,-0.14426 1.9295,-0.25275 2.7988,-0.68626 0.3092,-0.12312 0.56378,-0.54564 0.25537,-0.81192 -0.79753,-0.80294 -1.96227,-1.05768 -3.043,-1.21852 -2.60187,-0.31316 -5.23483,0.0243 -7.7848,0.55606 -4.17662,0.94255 -8.34859,1.90544 -12.51915,2.87631 -1.0502,0.19555 -2.08086,0.54828 -3.15019,0.61082 z"
           inkscape:connector-curvature="0" />
        <path
           style="stroke:none;stroke-width:0.14066462"
           id="path32"
           d="m 111.74346,208.51058 c -0.27719,-0.49442 -0.59761,-0.97085 -0.78356,-1.5082 2.94482,1.71667 6.02777,3.22614 9.28231,4.25749 2.13051,0.66099 4.34598,1.14472 6.58691,1.09706 3.67557,-0.26982 7.34466,0.51806 10.81809,1.66815 2.73199,0.94357 5.42009,2.10645 7.80577,3.7563 1.21853,0.87176 2.19099,2.03008 3.21362,3.11347 0.31323,0.37056 0.68012,0.70807 0.90838,1.14469 -2.181,-1.24831 -4.41869,-2.48625 -6.87259,-3.1025 -0.88628,-0.19731 -1.8828,-0.35632 -2.72298,0.082 -0.7664,0.41575 -0.92187,1.38742 -0.82644,2.17679 0.13167,1.20441 1.03753,2.15245 2.01404,2.78319 2.49848,1.62018 5.52165,2.0364 8.17824,3.30927 2.26344,1.19588 4.2205,2.89643 6.00582,4.71438 1.19766,1.25068 2.32715,2.60483 3.05762,4.1873 0.98678,2.10702 1.72568,4.31799 2.42576,6.5329 0.14267,0.4886 0.3269,0.9666 0.41548,1.46909 -0.72917,-0.76081 -1.34071,-1.62495 -2.05328,-2.39987 -1.39754,-1.58726 -2.85802,-3.12571 -4.48227,-4.48158 -1.01407,-0.82615 -2.09436,-1.63818 -3.36583,-2.00785 -0.63594,-0.18838 -1.41044,-0.14422 -1.89489,0.35362 -0.71851,1.3382 -1.205,3.02837 -0.5333,4.48312 0.56427,1.1872 1.72201,1.9416 2.86787,2.49807 1.99828,0.95603 4.16044,1.49695 6.19008,2.37554 1.06952,0.48137 2.18397,1.05365 2.8638,2.04892 0.52696,0.92708 1.07847,1.85579 1.37694,2.88827 0.79325,2.54265 1.0783,5.20937 1.2736,7.85513 0.0527,1.18748 0.18928,2.37991 0.10152,3.56768 -0.3116,-0.83289 -0.53564,-1.70092 -0.9246,-2.50355 -1.39442,-3.12261 -3.79302,-5.79735 -6.79185,-7.45551 -1.92374,-1.09604 -4.06564,-1.7479 -6.23707,-2.13444 -2.7237,-0.69842 -5.13764,-2.24796 -7.35522,-3.93045 -3.03244,-2.3861 -5.74193,-5.22963 -7.7817,-8.51457 1.43928,1.26727 2.98884,2.5013 4.84266,3.09237 0.0863,-1.12384 -0.2062,-2.23418 -0.54943,-3.29592 -0.86504,-2.52056 -2.34403,-4.78147 -3.98953,-6.85838 -0.956,-1.18959 -2.03288,-2.33278 -3.37876,-3.08225 -0.59836,-0.30947 -1.39542,-0.56652 -2.00208,-0.13946 -0.61068,0.46018 -0.6278,1.28123 -0.63064,1.97535 -0.44574,-0.93079 -0.86935,-1.90094 -0.96053,-2.93891 -0.0493,-0.56429 0.0938,-1.22632 0.63105,-1.51847 0.6539,-0.33965 1.43042,-0.18399 2.1073,0.007 1.69388,0.54548 3.21221,1.59711 4.38015,2.9351 2.05399,2.31478 3.78191,4.89345 5.44738,7.49546 0.002,-0.83341 -0.32349,-1.6244 -0.55155,-2.41493 -1.22365,-3.59454 -3.13429,-7.08106 -6.07755,-9.5493 -1.39249,-1.12718 -3.03991,-2.11081 -4.87445,-2.19085 -0.96635,-0.0543 -1.97845,0.28391 -2.61862,1.03154 -0.91534,1.05158 -1.12215,2.51789 -1.04916,3.86644 0.21552,3.3609 1.91403,6.4544 4.07492,8.96808 2.02022,2.84579 4.42137,5.40067 6.94869,7.79999 2.50003,2.35487 5.13201,4.56836 7.87651,6.63403 -2.68711,-0.94164 -5.17378,-2.38596 -7.52822,-3.9697 -3.05158,-2.08648 -5.82085,-4.58131 -8.23648,-7.37716 -1.60921,-1.80557 -2.91246,-3.84577 -4.36468,-5.77189 -1.65507,-2.27848 -3.22122,-4.63574 -4.46344,-7.16743 -0.61345,-1.30158 -1.17877,-2.65546 -1.35994,-4.09249 -0.0767,-0.74227 -0.0638,-1.56968 0.41499,-2.18776 0.27638,-0.37494 0.72992,-0.56583 1.18157,-0.6229 1.45686,-0.19993 2.93567,-0.2239 4.4021,-0.13336 0.12495,-0.7841 -0.39479,-1.51637 -1.06736,-1.8669 -1.16159,-0.64255 -2.52845,-0.731 -3.82833,-0.74573 -1.30611,-0.0379 -2.52521,-0.65171 -3.54348,-1.43463 -1.6469,-1.2911 -2.91837,-2.99138 -3.99319,-4.77092 z"
           inkscape:connector-curvature="0" />
        <path
           style="stroke:none;stroke-width:0.14066462"
           id="path34"
           d="m 124.75494,210.39549 c 2.2782,-0.93003 4.73083,-1.38027 7.17263,-1.61216 2.61931,-0.25114 5.24271,0.0581 7.84655,0.33151 5.7875,0.71706 11.46234,2.26245 16.86287,4.45133 2.65716,1.09879 5.26522,2.33293 7.73543,3.80849 2.9586,1.82035 5.44021,4.47877 6.83757,7.67874 0.76093,1.76098 1.28527,3.66629 1.28401,5.59452 -1.00179,-1.18023 -1.95017,-2.40565 -2.7995,-3.69751 -0.56903,-0.88606 -1.40946,-1.54774 -2.25415,-2.154 -1.24328,-0.86322 -2.58556,-1.61539 -4.03848,-2.05919 -0.65951,-0.17902 -1.39791,-0.35274 -2.05244,-0.0666 -0.5374,0.25773 -0.64274,0.922 -0.55423,1.45179 0.18799,1.26391 0.97765,2.32308 1.72539,3.31913 1.89405,2.39762 3.98193,4.64362 5.73448,7.15195 2.81328,3.91751 4.8902,8.36547 6.012,13.05945 0.6902,2.84255 1.12111,5.76584 1.06415,8.69715 -0.075,3.14287 -0.65044,6.39109 -2.37751,9.07399 0.0636,-1.60301 0.16936,-3.20757 0.055,-4.81045 -0.0771,-0.72199 -0.10361,-1.49977 -0.49707,-2.13261 -0.27722,-0.37814 -0.74371,-0.11412 -0.96552,0.17201 -0.76962,0.90268 -1.23914,2.0094 -1.73411,3.07634 -1.1685,2.55771 -1.73299,5.34498 -2.01179,8.12971 -0.47984,4.98699 -0.14297,10.01729 0.51558,14.97094 0.3038,2.41465 0.78168,4.80257 1.22752,7.19218 -0.54046,-0.89026 -0.88995,-1.88111 -1.31275,-2.83017 -1.0899,-2.60595 -2.07396,-5.25847 -2.90599,-7.95782 -1.30041,-4.60888 -0.99407,-9.46617 -0.50733,-14.17196 0.31971,-3.00952 0.74263,-6.00765 1.15739,-9.0062 0.35104,-2.44405 0.25174,-4.9293 -0.0242,-7.3742 -0.6759,-5.53656 -2.25654,-10.93963 -4.39816,-16.08078 -2.1201,-4.98417 -4.78879,-9.80545 -8.42862,-13.84829 -3.86237,-4.33683 -9.22254,-7.05686 -14.73603,-8.66002 -4.4239,-1.24475 -9.03826,-1.83806 -13.63322,-1.69782 z"
           inkscape:connector-curvature="0" />
        <path
           style="stroke:none;stroke-width:0.14066462"
           id="path36"
           d="m 167.96711,169.02321 c 0.0228,-1.06172 0.46432,-2.0613 0.97308,-2.97506 0.66206,-1.11558 1.42141,-2.26301 2.60862,-2.87687 1.89813,-1.01844 4.08785,-1.27417 6.20711,-1.3957 2.8372,-0.121 5.68847,0.0739 8.4922,0.5181 -2.21645,1.24635 -4.48734,2.3934 -6.72798,3.59567 -2.7981,1.46671 -5.59086,2.94551 -8.41231,4.36693 -0.73336,0.33087 -1.61498,0.64129 -2.39383,0.27879 -0.56355,-0.26831 -0.75473,-0.93412 -0.74684,-1.51186 z"
           inkscape:connector-curvature="0" />
      </g>
    </g>
  </g>
</svg>
