<?xml version="1.0" standalone="no"?>
<!DOCTYPE svg PUBLIC "-//W3C//DTD SVG 20010904//EN"
 "http://www.w3.org/TR/2001/REC-SVG-20010904/DTD/svg10.dtd">
<svg version="1.0" xmlns="http://www.w3.org/2000/svg"
 width="80px" height="80px" viewBox="0 0 740.000000 740.000000"
 preserveAspectRatio="xMidYMid meet">

<g transform="translate(0.000000,740.000000) scale(0.100000,-0.100000)"
fill="#000000" stroke="none">
<path d="M3586 5535 c-245 -87 -529 -554 -665 -1091 -53 -210 -91 -576 -91
-882 0 -305 31 -478 119 -657 87 -178 186 -290 422 -477 239 -191 385 -362
465 -546 43 -98 44 -116 5 -109 -48 10 -206 82 -324 148 -379 211 -709 502
-798 704 -27 60 -29 133 -5 169 26 40 46 43 73 12 32 -37 30 -56 -6 -56 -41 0
-53 -36 -21 -62 32 -26 76 -23 107 8 22 22 25 32 20 70 -8 78 -71 144 -136
144 -37 0 -92 -45 -115 -94 -21 -44 -20 -130 1 -196 103 -319 763 -814 1251
-940 77 -20 90 19 51 146 -69 224 -232 432 -514 659 -286 230 -400 379 -468
616 -38 130 -51 253 -49 474 4 572 86 980 277 1370 84 171 172 301 271 402
115 118 173 140 281 108 170 -50 341 -257 408 -490 41 -146 131 -258 331 -413
45 -34 95 -81 110 -104 27 -39 29 -48 28 -132 -2 -182 -113 -448 -255 -609
l-34 -39 -52 21 c-91 36 -217 54 -333 48 -124 -7 -199 -25 -296 -72 -129 -63
-204 -149 -204 -236 0 -135 245 -172 534 -79 102 33 237 109 316 178 l52 45
45 -24 c94 -51 303 -218 424 -339 221 -220 329 -417 345 -630 7 -94 -14 -200
-58 -290 -45 -94 -177 -223 -283 -278 -215 -110 -451 -128 -672 -53 -91 31
-118 27 -111 -19 2 -19 15 -29 58 -45 346 -134 786 -29 999 239 135 169 177
368 125 586 -22 91 -112 269 -188 370 -115 154 -364 377 -551 496 l-73 46 58
76 c155 207 240 431 240 629 -1 128 -27 167 -210 312 -174 139 -220 200 -275
371 -88 270 -262 458 -475 515 -68 18 -104 18 -154 0z m554 -1889 c36 -8 78
-19 95 -26 l30 -11 -40 -34 c-141 -119 -355 -196 -545 -197 -112 0 -160 18
-160 61 0 74 122 159 295 206 66 18 243 18 325 1z"/>
<path d="M1965 4192 c-66 -31 -95 -104 -74 -186 13 -54 56 -96 99 -96 47 0 50
35 6 75 -42 38 -47 78 -15 119 27 34 52 33 128 -5 102 -51 199 -182 323 -439
56 -115 168 -389 214 -520 18 -50 22 -55 49 -55 47 0 43 34 -25 215 -189 498
-374 803 -532 875 -76 35 -125 39 -173 17z"/>
<path d="M1799 3797 c-48 -18 -76 -38 -104 -77 -44 -59 -51 -153 -16 -218 23
-43 70 -53 122 -26 24 12 30 21 27 42 -3 24 -7 27 -41 28 -57 2 -71 33 -43 97
39 91 127 109 230 47 60 -36 213 -185 289 -280 111 -141 196 -279 248 -405 38
-94 50 -109 77 -101 30 10 33 30 13 88 -92 268 -415 677 -614 780 -64 33 -139
43 -188 25z"/>
</g>
</svg>
